<?xml version="1.0" encoding="UTF-8"?>
<!DOCTYPE svg PUBLIC "-//W3C//DTD SVG 1.1//EN" "http://www.w3.org/Graphics/SVG/1.1/DTD/svg11.dtd">
<!-- Creator: CorelDRAW 2020 (64-Bit) -->
<svg xmlns="http://www.w3.org/2000/svg" xml:space="preserve" width="30.0184mm" height="30.0001mm" version="1.1" style="shape-rendering:geometricPrecision; text-rendering:geometricPrecision; image-rendering:optimizeQuality; fill-rule:evenodd; clip-rule:evenodd"
viewBox="0 0 798.85 798.37"
 xmlns:xlink="http://www.w3.org/1999/xlink"
 xmlns:xodm="http://www.corel.com/coreldraw/odm/2003">
 <defs>
  <style type="text/css">
   <![CDATA[
    .fil0 {fill:#15D315}
   ]]>
  </style>
 </defs>
 <g id="Capa_x0020_1">
  <metadata id="CorelCorpID_0Corel-Layer"/>
  <g id="_2012008180896">
   <path class="fil0" d="M6.24 6.24c-2.85,12.23 -4.86,39.94 -6.24,77.66l0 621.33c0,30.69 46.27,32.47 74.36,37.97 32.62,6.39 63.56,12.7 98.82,19.76 28.7,5.74 60.56,12.11 93.62,18.72 67.28,13.46 72.36,23.51 126.38,10.92l6.24 -56.17c61.58,0 199.71,15.33 199.71,-31.21l0 -212.19c0,-15.31 -9.97,-22.37 -23.36,-26.43 -13.52,-4.1 -23.17,0.08 -39.05,7.7 -12.96,55.62 -6.24,128.53 -6.24,187.23l-131.06 0 0 -524.24c0,-47.87 -44.2,-38.17 -95.93,-60.1 -1.78,-0.76 -7,-3.29 -8.47,-4.02 -1.08,-0.53 -3.13,-1.8 -3.99,-2.25 -0.86,-0.45 -2.7,-1.42 -3.95,-2.28l243.4 0c0,93.48 -18.41,199.71 37.45,199.71 14.55,0 31.21,-16.65 31.21,-31.2 0,-64 7.13,-173.51 -6.24,-230.92 -11.14,-2.59 -44.88,-4.69 -90.88,-6.24l-425.87 0c-37.21,1.5 -63.02,3.57 -69.9,6.24z"/>
   <path class="fil0" d="M630.34 268.36c0,19.94 39.06,46.18 49.93,62.41 -66.55,0 -149.78,-6.84 -205.95,6.24 -32.07,66.84 22.81,63.05 55.97,62.61 49.9,-0.67 100.05,-0.2 149.98,-0.2 -13.38,19.97 -49.93,43.85 -49.93,68.65 0,14.55 16.65,31.21 31.21,31.21 34.08,0 137.3,-103.22 137.3,-137.3 0,-18.87 -44.19,-53.55 -57.73,-67.09 -9.18,-9.18 -60.64,-63.97 -67.09,-63.97 -25.21,0 -43.69,13.59 -43.69,37.45z"/>
  </g>
 </g>
</svg>
