<svg id="svg" version="1.1" xmlns="http://www.w3.org/2000/svg" xmlns:xlink="http://www.w3.org/1999/xlink" width="400" height="400" viewBox="0, 0, 400,400"><g id="svgg"><path id="path0" d="M25.600 44.790 L 25.600 89.600 12.800 89.600 L 0.000 89.600 -0.000 198.381 L -0.000 307.162 6.367 307.281 C 12.057 307.387,12.780 307.326,13.167 306.705 C 13.475 306.212,13.600 276.776,13.600 204.995 L 13.600 103.979 19.500 104.089 L 25.400 104.200 25.400 200.700 L 25.400 297.200 31.688 297.200 L 37.975 297.200 38.088 302.100 L 38.200 307.000 44.900 307.000 C 49.064 307.000,51.620 307.151,51.653 307.400 C 51.803 308.519,52.334 303.368,52.365 300.500 L 52.400 297.200 61.800 297.200 C 66.970 297.200,71.200 297.356,71.200 297.546 C 71.200 297.736,71.695 297.897,72.300 297.903 C 72.905 297.909,75.526 297.933,78.124 297.957 C 80.722 297.981,82.752 298.155,82.635 298.344 C 82.518 298.533,83.902 298.723,85.711 298.766 C 87.520 298.809,89.171 299.014,89.380 299.222 C 89.589 299.430,90.793 299.600,92.056 299.600 C 93.319 299.600,94.464 299.780,94.600 300.000 C 94.736 300.220,95.557 300.400,96.424 300.400 C 97.291 300.400,98.000 300.546,98.000 300.725 C 98.000 300.904,98.851 301.095,99.891 301.148 C 100.931 301.202,101.876 301.379,101.991 301.542 C 102.106 301.705,102.810 301.879,103.555 301.930 C 104.301 301.980,105.111 302.150,105.355 302.308 C 106.009 302.729,109.255 303.562,110.324 303.582 C 110.832 303.592,111.143 303.769,111.015 303.976 C 110.887 304.182,111.102 304.331,111.491 304.305 C 111.881 304.280,112.920 304.412,113.800 304.598 C 114.680 304.785,115.580 304.960,115.800 304.987 C 116.020 305.014,116.167 305.217,116.127 305.438 C 116.086 305.659,116.716 305.885,117.526 305.939 C 118.336 305.994,119.595 306.390,120.322 306.819 C 121.780 307.679,122.162 307.786,121.823 307.237 C 121.700 307.038,121.957 306.968,122.395 307.083 C 122.833 307.197,123.081 307.468,122.947 307.685 C 122.813 307.902,123.082 307.877,123.544 307.630 C 124.133 307.315,128.577 307.213,138.355 307.290 C 146.038 307.350,152.241 307.265,152.138 307.100 C 152.036 306.935,152.244 306.800,152.600 306.800 C 152.956 306.800,153.148 306.961,153.026 307.158 C 152.904 307.355,153.074 307.619,153.402 307.746 C 153.731 307.872,154.000 307.790,154.000 307.564 C 154.000 307.338,154.180 307.264,154.400 307.400 C 154.620 307.536,154.800 307.457,154.800 307.224 C 154.800 306.991,154.609 306.800,154.376 306.800 C 154.143 306.800,154.041 306.657,154.149 306.483 C 154.256 306.309,153.968 306.138,153.508 306.103 C 153.048 306.068,152.541 305.828,152.381 305.569 C 152.215 305.301,151.868 305.234,151.577 305.414 C 151.208 305.642,151.138 305.538,151.327 305.045 C 151.485 304.634,151.431 304.457,151.193 304.605 C 150.974 304.740,150.695 304.592,150.574 304.275 C 150.452 303.959,149.876 303.700,149.293 303.700 C 148.710 303.700,148.166 303.498,148.083 303.250 C 148.001 303.002,147.588 302.800,147.167 302.800 C 146.745 302.800,146.400 302.620,146.400 302.400 C 146.400 302.180,146.175 301.996,145.900 301.991 C 145.625 301.986,144.950 301.630,144.400 301.200 C 143.850 300.770,143.085 300.414,142.700 300.409 C 142.315 300.404,142.000 300.220,142.000 300.000 C 142.000 299.780,141.640 299.600,141.200 299.600 C 140.760 299.600,140.400 299.420,140.400 299.200 C 140.400 298.980,140.164 298.800,139.875 298.800 C 139.586 298.800,138.605 298.440,137.694 298.000 C 136.784 297.560,135.760 297.200,135.419 297.200 C 135.079 297.200,134.800 297.020,134.800 296.800 C 134.800 296.580,134.440 296.400,134.000 296.400 C 133.560 296.400,133.200 296.220,133.200 296.000 C 133.200 295.780,133.065 295.633,132.900 295.673 C 132.317 295.814,129.200 294.668,129.200 294.313 C 129.200 294.115,129.024 294.062,128.808 294.195 C 128.593 294.328,128.008 294.212,127.508 293.938 C 127.009 293.664,126.254 293.382,125.831 293.312 C 125.409 293.241,124.852 293.009,124.595 292.796 C 124.337 292.582,124.008 292.526,123.863 292.671 C 123.625 292.908,122.780 292.609,120.705 291.553 C 120.323 291.359,119.468 291.200,118.805 291.200 C 118.142 291.200,117.600 291.020,117.600 290.800 C 117.600 290.580,116.880 290.400,116.000 290.400 C 115.120 290.400,114.400 290.220,114.400 290.000 C 114.400 289.780,113.871 289.600,113.224 289.600 C 112.577 289.600,111.936 289.420,111.800 289.200 C 111.664 288.980,110.933 288.800,110.176 288.800 C 109.419 288.800,108.800 288.620,108.800 288.400 C 108.800 288.180,107.979 288.000,106.976 288.000 C 105.973 288.000,105.243 287.855,105.353 287.677 C 105.462 287.499,104.798 287.310,103.876 287.257 C 102.954 287.203,102.140 286.989,102.067 286.780 C 101.993 286.571,100.868 286.400,99.567 286.400 C 98.256 286.400,97.200 286.222,97.200 286.000 C 97.200 285.780,96.311 285.600,95.224 285.600 C 94.137 285.600,93.136 285.420,93.000 285.200 C 92.864 284.980,91.413 284.800,89.776 284.800 C 88.139 284.800,86.800 284.644,86.800 284.453 C 86.800 284.261,85.150 284.072,83.133 284.031 C 81.117 283.990,79.144 283.784,78.750 283.573 C 78.355 283.362,77.890 283.213,77.716 283.242 C 77.542 283.271,68.895 283.273,58.500 283.247 L 39.600 283.200 39.600 148.400 L 39.600 13.600 97.200 13.600 C 135.333 13.600,154.800 13.735,154.800 14.000 C 154.800 14.220,155.775 14.400,156.967 14.400 C 158.158 14.400,159.193 14.570,159.267 14.779 C 159.340 14.987,160.255 15.200,161.300 15.253 C 162.345 15.306,163.200 15.496,163.200 15.675 C 163.200 15.854,163.740 16.000,164.400 16.000 C 165.060 16.000,165.600 16.180,165.600 16.400 C 165.600 16.620,165.873 16.800,166.206 16.800 C 167.176 16.800,170.000 17.766,170.000 18.097 C 170.000 18.264,170.360 18.400,170.800 18.400 C 171.240 18.400,171.600 18.558,171.600 18.750 C 171.600 18.942,172.118 19.204,172.752 19.330 C 173.385 19.457,174.150 19.802,174.452 20.097 C 174.753 20.392,175.585 20.873,176.300 21.165 C 177.015 21.458,177.600 21.855,177.600 22.049 C 177.600 22.242,177.735 22.356,177.900 22.302 C 178.356 22.154,181.200 24.010,181.200 24.456 C 181.200 24.671,181.380 24.736,181.600 24.600 C 181.820 24.464,182.000 24.543,182.000 24.776 C 182.000 25.009,182.270 25.200,182.600 25.200 C 182.930 25.200,183.200 25.350,183.200 25.532 C 183.200 25.715,183.644 26.102,184.186 26.393 C 184.729 26.683,185.078 27.073,184.963 27.260 C 184.847 27.447,185.134 27.600,185.600 27.600 C 186.066 27.600,186.336 27.780,186.200 28.000 C 186.064 28.220,186.136 28.400,186.359 28.400 C 186.873 28.400,191.686 33.247,191.429 33.505 C 191.324 33.609,191.500 33.957,191.819 34.276 C 192.323 34.780,192.400 44.154,192.400 104.582 L 192.400 174.307 193.300 174.548 C 195.054 175.018,206.613 174.827,207.120 174.320 C 207.490 173.950,207.600 157.864,207.600 104.349 C 207.600 44.124,207.677 34.780,208.181 34.276 C 208.500 33.957,208.684 33.618,208.590 33.523 C 208.364 33.297,211.991 29.534,213.010 28.937 C 213.444 28.683,213.740 28.233,213.667 27.937 C 213.593 27.642,213.658 27.524,213.809 27.676 C 214.110 27.977,214.533 27.677,216.628 25.680 C 217.390 24.954,218.190 24.470,218.406 24.604 C 218.623 24.738,218.800 24.657,218.800 24.424 C 218.800 24.191,218.988 24.000,219.217 24.000 C 219.446 24.000,220.020 23.640,220.492 23.200 C 220.964 22.760,221.856 22.176,222.475 21.903 C 223.094 21.629,223.600 21.269,223.600 21.102 C 223.600 20.936,223.960 20.800,224.400 20.800 C 224.840 20.800,225.200 20.620,225.200 20.400 C 225.200 20.180,225.483 20.000,225.829 20.000 C 226.174 20.000,226.736 19.721,227.077 19.380 C 227.418 19.040,228.215 18.657,228.848 18.530 C 229.482 18.404,230.000 18.143,230.000 17.950 C 230.000 17.758,230.540 17.600,231.200 17.600 C 231.860 17.600,232.400 17.420,232.400 17.200 C 232.400 16.980,232.762 16.800,233.205 16.800 C 233.648 16.800,234.323 16.642,234.705 16.449 C 235.894 15.849,238.142 15.229,239.500 15.127 C 240.215 15.074,240.800 14.888,240.800 14.715 C 240.800 14.542,241.779 14.400,242.976 14.400 C 244.173 14.400,245.264 14.220,245.400 14.000 C 245.563 13.736,265.204 13.600,303.024 13.600 L 360.400 13.600 360.400 148.400 L 360.400 283.200 341.900 283.210 C 331.725 283.215,322.691 283.384,321.824 283.585 C 320.957 283.786,318.582 283.994,316.546 284.049 C 314.510 284.103,312.935 284.294,313.046 284.474 C 313.156 284.653,311.897 284.800,310.247 284.800 C 308.597 284.800,307.136 284.980,307.000 285.200 C 306.864 285.420,305.784 285.600,304.600 285.600 C 303.416 285.600,302.336 285.780,302.200 286.000 C 302.064 286.220,301.078 286.400,300.010 286.400 C 298.941 286.400,298.007 286.571,297.933 286.780 C 297.860 286.989,297.046 287.203,296.124 287.257 C 295.202 287.310,294.538 287.499,294.647 287.677 C 294.757 287.855,294.027 288.000,293.024 288.000 C 292.021 288.000,291.200 288.160,291.200 288.356 C 291.200 288.691,290.278 288.917,286.697 289.458 C 285.871 289.582,285.095 289.845,284.974 290.042 C 284.852 290.239,284.213 290.400,283.553 290.400 C 282.855 290.400,282.456 290.567,282.600 290.800 C 282.747 291.038,282.269 291.200,281.418 291.200 C 280.632 291.200,279.677 291.367,279.295 291.571 C 278.079 292.220,277.021 292.526,276.300 292.436 C 275.915 292.389,275.600 292.541,275.600 292.775 C 275.600 293.009,275.075 293.200,274.433 293.200 C 273.792 293.200,273.207 293.363,273.133 293.562 C 273.060 293.761,272.550 293.986,272.000 294.062 C 271.450 294.138,270.892 294.347,270.760 294.527 C 270.628 294.706,270.268 294.904,269.960 294.967 C 269.652 295.030,268.950 295.267,268.400 295.494 C 267.850 295.720,267.237 295.809,267.038 295.691 C 266.839 295.573,266.805 295.684,266.962 295.938 C 267.149 296.241,266.895 296.400,266.224 296.400 C 265.661 296.400,265.200 296.580,265.200 296.800 C 265.200 297.020,264.874 297.200,264.476 297.200 C 264.079 297.200,263.411 297.450,262.993 297.756 C 262.575 298.061,262.001 298.222,261.717 298.113 C 261.433 298.004,261.200 298.114,261.200 298.357 C 261.200 298.601,260.855 298.800,260.433 298.800 C 260.012 298.800,259.607 298.935,259.533 299.100 C 259.326 299.567,253.523 302.216,253.035 302.067 C 252.796 301.993,252.732 302.066,252.894 302.228 C 253.056 302.390,252.291 302.952,251.194 303.477 C 250.097 304.002,249.200 304.568,249.200 304.735 C 249.200 304.902,248.570 305.267,247.800 305.546 C 247.030 305.824,246.400 306.314,246.400 306.635 C 246.400 307.138,248.524 307.203,261.805 307.109 C 274.831 307.017,277.176 307.086,276.995 307.557 C 276.821 308.010,276.894 308.020,277.386 307.612 C 277.718 307.336,278.288 307.225,278.651 307.364 C 279.163 307.561,279.215 307.499,278.877 307.093 C 278.530 306.675,278.742 306.574,279.921 306.599 C 280.734 306.616,281.503 306.484,281.629 306.306 C 281.756 306.127,282.206 305.909,282.629 305.820 C 283.053 305.731,284.553 305.284,285.963 304.826 C 287.373 304.368,288.616 304.083,288.726 304.193 C 288.836 304.303,289.123 304.239,289.363 304.051 C 289.819 303.694,296.624 301.867,297.498 301.867 C 297.774 301.867,298.000 301.734,298.000 301.572 C 298.000 301.296,299.108 301.117,304.301 300.554 C 305.456 300.428,306.300 300.163,306.177 299.963 C 306.052 299.761,307.018 299.600,308.353 299.600 C 309.673 299.600,310.864 299.420,311.000 299.200 C 311.136 298.980,312.687 298.800,314.447 298.800 C 316.479 298.800,317.557 298.654,317.400 298.400 C 317.185 298.052,321.486 297.857,327.904 297.923 C 328.621 297.930,329.105 297.771,328.980 297.568 C 328.844 297.348,332.540 297.200,338.176 297.200 L 347.600 297.200 347.647 300.500 C 347.695 303.880,348.229 309.735,348.339 308.081 L 348.400 307.163 354.964 307.281 L 361.529 307.400 361.760 306.000 C 361.887 305.230,361.993 302.935,361.996 300.900 L 362.000 297.200 368.300 297.200 L 374.600 297.200 374.600 200.700 L 374.600 104.200 380.500 104.089 L 386.400 103.979 386.400 204.989 C 386.400 300.657,386.437 306.037,387.100 306.700 C 387.716 307.316,388.532 307.387,393.900 307.290 L 400.000 307.179 400.000 198.390 L 400.000 89.600 387.200 89.600 L 374.400 89.600 374.400 44.788 L 374.400 -0.024 305.733 0.088 C 251.235 0.177,237.032 0.303,236.900 0.700 C 236.800 0.999,236.024 1.200,234.967 1.200 C 233.995 1.200,233.200 1.380,233.200 1.600 C 233.200 1.820,232.559 2.000,231.776 2.000 C 230.929 2.000,230.453 2.162,230.600 2.400 C 230.745 2.634,230.330 2.800,229.600 2.800 C 228.870 2.800,228.455 2.966,228.600 3.200 C 228.740 3.426,228.412 3.600,227.847 3.600 C 227.297 3.600,226.736 3.780,226.600 4.000 C 226.464 4.220,225.924 4.400,225.400 4.400 C 224.876 4.400,224.336 4.580,224.200 4.800 C 224.064 5.020,223.603 5.200,223.176 5.200 C 222.749 5.200,222.400 5.380,222.400 5.600 C 222.400 5.820,221.984 6.000,221.475 6.000 C 220.967 6.000,220.195 6.315,219.760 6.700 C 219.325 7.085,218.707 7.459,218.388 7.532 C 218.069 7.605,217.716 7.805,217.604 7.978 C 217.492 8.151,216.950 8.428,216.400 8.595 C 215.850 8.762,215.157 9.093,214.860 9.331 C 214.562 9.570,214.099 9.797,213.830 9.837 C 213.560 9.876,212.832 10.379,212.211 10.954 C 211.591 11.529,210.855 12.000,210.577 12.000 C 210.299 12.000,209.625 12.530,209.080 13.178 C 208.535 13.826,208.013 14.279,207.919 14.186 C 207.826 14.093,207.101 14.628,206.309 15.375 C 205.516 16.123,204.762 16.629,204.634 16.501 C 204.505 16.372,204.400 16.567,204.400 16.933 C 204.400 17.300,204.222 17.600,204.005 17.600 C 203.550 17.600,202.321 18.563,200.967 19.979 L 200.031 20.958 199.216 20.018 C 198.767 19.501,198.395 19.240,198.388 19.439 C 198.381 19.637,198.192 19.485,197.968 19.100 C 197.744 18.715,197.289 18.400,196.957 18.400 C 196.624 18.400,196.464 18.220,196.600 18.000 C 196.736 17.780,196.644 17.600,196.395 17.600 C 195.785 17.600,194.776 16.558,195.086 16.248 C 195.222 16.111,195.122 16.000,194.863 16.000 C 194.604 16.000,193.823 15.456,193.127 14.790 C 192.430 14.125,191.442 13.475,190.930 13.347 C 190.419 13.218,190.000 12.883,190.000 12.601 C 190.000 12.319,189.190 11.707,188.200 11.242 C 187.210 10.777,186.400 10.206,186.400 9.974 C 186.400 9.742,186.235 9.655,186.034 9.779 C 185.833 9.903,185.608 9.837,185.534 9.632 C 185.460 9.428,185.130 9.201,184.800 9.130 C 184.470 9.058,183.585 8.603,182.833 8.118 C 182.081 7.632,181.316 7.328,181.133 7.441 C 180.950 7.555,180.800 7.457,180.800 7.224 C 180.800 6.991,180.429 6.800,179.976 6.800 C 179.523 6.800,179.264 6.620,179.400 6.400 C 179.540 6.173,179.204 6.000,178.624 6.000 C 178.061 6.000,177.600 5.820,177.600 5.600 C 177.600 5.380,177.240 5.200,176.800 5.200 C 176.360 5.200,176.000 5.020,176.000 4.800 C 176.000 4.580,175.460 4.400,174.800 4.400 C 174.140 4.400,173.600 4.256,173.600 4.080 C 173.600 3.706,171.246 2.800,170.272 2.800 C 169.902 2.800,169.600 2.620,169.600 2.400 C 169.600 2.180,168.970 2.000,168.200 2.000 C 167.430 2.000,166.800 1.820,166.800 1.600 C 166.800 1.380,165.979 1.200,164.976 1.200 C 163.941 1.200,163.253 1.038,163.385 0.824 C 163.726 0.273,167.429 0.309,93.900 0.139 L 25.600 -0.020 25.600 44.790 M296.194 25.610 C 296.123 25.725,296.018 28.875,295.960 32.610 L 295.856 39.400 322.328 39.503 L 348.800 39.606 348.800 32.503 L 348.800 25.400 322.562 25.400 C 308.131 25.400,296.265 25.494,296.194 25.610 M99.011 31.982 C 98.869 32.212,98.223 32.400,97.576 32.400 C 96.929 32.400,96.400 32.580,96.400 32.800 C 96.400 33.020,95.939 33.200,95.376 33.200 C 94.796 33.200,94.460 33.373,94.600 33.600 C 94.736 33.820,94.466 34.000,94.000 34.000 C 93.534 34.000,93.264 34.180,93.400 34.400 C 93.536 34.620,93.363 34.800,93.016 34.800 C 92.312 34.800,87.475 39.532,87.268 40.423 C 87.195 40.736,87.006 41.084,86.847 41.196 C 86.283 41.594,85.106 44.536,84.902 46.057 C 84.788 46.906,84.552 47.600,84.378 47.600 C 84.204 47.600,84.062 49.492,84.062 51.805 C 84.062 54.272,84.214 55.915,84.431 55.781 C 84.647 55.647,84.813 57.344,84.831 59.876 C 84.847 62.254,84.958 64.560,85.077 65.000 C 85.348 66.004,85.965 74.613,86.238 81.200 C 86.352 83.950,86.615 86.371,86.823 86.580 C 87.030 86.789,87.200 88.916,87.200 91.306 C 87.200 93.697,87.371 95.973,87.581 96.364 C 87.790 96.756,87.990 99.264,88.025 101.938 C 88.059 104.612,88.248 106.800,88.444 106.800 C 88.640 106.800,88.803 108.915,88.806 111.500 C 88.809 114.085,88.973 116.454,89.170 116.765 C 89.531 117.335,88.834 118.400,88.100 118.400 C 87.903 118.400,86.185 119.930,84.281 121.800 C 82.377 123.670,80.912 125.200,81.025 125.200 C 81.139 125.200,81.041 125.425,80.808 125.700 C 80.576 125.975,80.029 126.633,79.593 127.161 C 79.157 127.690,78.800 127.970,78.800 127.785 C 78.800 127.599,78.546 127.795,78.235 128.219 C 77.925 128.644,77.756 129.129,77.861 129.298 C 77.965 129.467,77.789 129.706,77.470 129.829 C 77.114 129.965,76.962 130.390,77.079 130.926 C 77.202 131.489,77.146 131.628,76.921 131.317 C 76.685 130.988,76.277 131.500,75.648 132.917 C 75.139 134.062,74.560 135.313,74.361 135.695 C 74.163 136.077,74.000 136.672,74.000 137.018 C 74.000 137.364,73.857 137.559,73.683 137.451 C 73.509 137.344,73.323 137.825,73.269 138.521 C 73.216 139.217,72.999 139.961,72.787 140.173 C 72.574 140.386,72.400 140.985,72.400 141.504 C 72.400 142.023,72.256 142.358,72.080 142.249 C 71.904 142.141,71.717 142.696,71.664 143.483 C 71.611 144.270,71.395 145.236,71.184 145.631 C 70.973 146.025,70.800 147.609,70.800 149.150 C 70.800 150.692,70.643 152.050,70.451 152.168 C 69.962 152.471,69.878 159.277,70.359 159.575 C 70.576 159.709,70.790 161.209,70.835 162.909 C 70.880 164.609,71.071 166.000,71.258 166.000 C 71.446 166.000,71.600 166.529,71.600 167.176 C 71.600 167.823,71.780 168.464,72.000 168.600 C 72.220 168.736,72.400 169.456,72.400 170.200 C 72.400 170.944,72.580 171.664,72.800 171.800 C 73.020 171.936,73.200 172.667,73.200 173.424 C 73.200 174.181,73.380 174.800,73.600 174.800 C 73.820 174.800,74.000 175.430,74.000 176.200 C 74.000 176.970,74.180 177.600,74.400 177.600 C 74.620 177.600,74.800 178.290,74.800 179.133 C 74.800 179.977,74.924 180.790,75.075 180.941 C 75.226 181.093,75.396 181.528,75.453 181.908 C 75.872 184.724,76.131 185.859,76.441 186.240 C 76.638 186.483,76.832 187.203,76.872 187.840 C 76.912 188.478,77.081 189.184,77.247 189.410 C 77.413 189.635,77.610 190.265,77.684 190.810 C 77.759 191.354,77.961 192.024,78.133 192.298 C 78.514 192.906,78.711 193.710,79.969 199.800 C 80.151 200.680,80.343 201.220,80.396 201.000 C 80.508 200.532,81.158 203.137,81.469 205.300 C 81.587 206.125,81.808 206.800,81.960 206.800 C 82.111 206.800,82.464 207.925,82.744 209.300 C 83.024 210.675,83.421 212.113,83.627 212.495 C 83.832 212.877,84.000 213.721,84.000 214.371 C 84.000 215.021,84.180 215.664,84.400 215.800 C 84.620 215.936,84.800 216.451,84.800 216.944 C 84.800 217.437,85.025 218.082,85.300 218.379 C 85.706 218.816,85.688 218.858,85.200 218.600 C 84.712 218.342,84.694 218.384,85.100 218.821 C 85.375 219.118,85.600 219.864,85.600 220.480 C 85.600 221.096,85.780 221.600,86.000 221.600 C 86.220 221.600,86.400 222.062,86.400 222.626 C 86.400 223.191,86.562 223.956,86.759 224.326 C 86.957 224.697,87.181 225.540,87.258 226.200 C 87.334 226.860,87.524 227.495,87.680 227.612 C 87.836 227.729,88.007 228.482,88.062 229.286 C 88.116 230.090,88.304 230.659,88.480 230.551 C 88.656 230.442,88.800 230.993,88.800 231.776 C 88.800 232.559,88.980 233.200,89.200 233.200 C 89.420 233.200,89.600 233.815,89.600 234.567 C 89.600 235.318,89.765 235.993,89.967 236.067 C 90.168 236.140,90.409 236.830,90.501 237.600 C 90.594 238.370,90.775 239.270,90.905 239.600 C 91.310 240.631,92.467 245.370,92.468 246.000 C 92.468 246.330,92.722 247.275,93.031 248.100 C 93.340 248.925,93.493 249.600,93.370 249.600 C 93.246 249.600,93.518 250.123,93.973 250.762 C 94.428 251.401,94.800 252.281,94.800 252.719 C 94.800 253.156,95.070 253.618,95.400 253.745 C 95.730 253.871,96.000 254.217,96.000 254.513 C 96.000 254.808,96.534 255.562,97.186 256.186 C 97.838 256.811,98.275 257.479,98.156 257.671 C 98.038 257.863,98.179 257.970,98.470 257.910 C 98.762 257.849,98.951 258.038,98.890 258.330 C 98.830 258.621,98.946 258.757,99.150 258.631 C 99.353 258.506,100.376 259.212,101.423 260.201 C 102.470 261.191,103.569 262.000,103.864 262.000 C 104.159 262.000,104.400 262.180,104.400 262.400 C 104.400 262.620,104.951 262.800,105.624 262.800 C 106.337 262.800,106.744 262.967,106.600 263.200 C 106.460 263.427,106.796 263.600,107.376 263.600 C 107.939 263.600,108.400 263.780,108.400 264.000 C 108.400 264.220,109.030 264.400,109.800 264.400 C 110.570 264.400,111.200 264.588,111.200 264.818 C 111.200 265.089,112.951 265.215,116.197 265.175 C 119.013 265.141,121.098 264.959,120.974 264.757 C 120.852 264.561,121.483 264.400,122.376 264.400 C 123.269 264.400,124.000 264.220,124.000 264.000 C 124.000 263.780,124.450 263.600,125.000 263.600 C 125.550 263.600,126.000 263.420,126.000 263.200 C 126.000 262.980,126.283 262.800,126.629 262.800 C 126.974 262.800,127.529 262.528,127.861 262.196 C 128.193 261.864,128.658 261.712,128.894 261.858 C 129.149 262.015,129.207 261.936,129.038 261.662 C 128.881 261.408,128.953 261.200,129.198 261.200 C 129.443 261.200,130.219 260.661,130.922 260.002 C 131.625 259.343,132.309 258.803,132.442 258.802 C 132.860 258.799,134.800 256.857,134.800 256.442 C 134.800 256.224,135.132 255.810,135.538 255.523 C 136.372 254.932,138.800 250.173,138.800 249.130 C 138.800 248.754,138.980 248.336,139.200 248.200 C 139.420 248.064,139.600 247.423,139.600 246.776 C 139.600 246.129,139.780 245.600,140.000 245.600 C 140.220 245.600,140.402 245.105,140.404 244.500 C 140.407 243.895,140.677 242.516,141.004 241.436 C 141.332 240.356,141.600 238.961,141.600 238.336 C 141.600 237.711,141.780 237.200,142.000 237.200 C 142.220 237.200,142.400 236.581,142.400 235.824 C 142.400 235.067,142.580 234.336,142.800 234.200 C 143.020 234.064,143.200 233.323,143.200 232.553 C 143.200 231.783,143.344 231.242,143.520 231.351 C 143.696 231.459,143.885 230.885,143.939 230.075 C 143.994 229.265,144.210 228.430,144.419 228.221 C 144.629 228.011,144.800 227.246,144.800 226.520 C 144.800 225.794,144.980 225.200,145.200 225.200 C 145.420 225.200,145.600 224.671,145.600 224.024 C 145.600 223.377,145.780 222.736,146.000 222.600 C 146.220 222.464,146.400 221.643,146.400 220.776 C 146.400 219.909,146.580 219.200,146.800 219.200 C 147.020 219.200,147.200 218.480,147.200 217.600 C 147.200 216.720,147.380 216.000,147.600 216.000 C 147.820 216.000,148.000 215.359,148.000 214.576 C 148.000 213.729,148.162 213.253,148.400 213.400 C 148.633 213.544,148.800 213.145,148.800 212.447 C 148.800 211.787,148.980 211.136,149.200 211.000 C 149.420 210.864,149.600 210.033,149.600 209.153 C 149.600 208.188,149.759 207.651,150.000 207.800 C 150.238 207.947,150.400 207.479,150.400 206.647 C 150.400 205.877,150.580 205.136,150.800 205.000 C 151.020 204.864,151.200 204.144,151.200 203.400 C 151.200 202.656,151.360 201.948,151.556 201.827 C 151.891 201.620,152.127 200.611,152.657 197.102 C 152.782 196.278,153.045 195.704,153.242 195.826 C 153.439 195.948,153.600 195.505,153.600 194.842 C 153.600 194.180,153.761 193.224,153.958 192.719 C 154.155 192.213,154.533 190.990,154.797 190.000 C 155.062 189.010,155.440 187.887,155.639 187.505 C 155.838 187.123,156.000 186.178,156.000 185.405 C 156.000 184.632,156.135 184.000,156.300 183.999 C 156.465 183.999,156.622 183.349,156.650 182.554 C 156.677 181.760,156.925 180.970,157.201 180.799 C 157.477 180.629,157.599 180.321,157.472 180.116 C 157.345 179.911,157.491 179.261,157.796 178.673 C 158.101 178.085,158.364 177.288,158.381 176.902 C 158.473 174.778,158.927 172.400,159.240 172.400 C 159.438 172.400,159.600 171.759,159.600 170.976 C 159.600 170.129,159.762 169.653,160.000 169.800 C 160.242 169.949,160.400 169.404,160.400 168.424 C 160.400 167.531,160.580 166.800,160.800 166.800 C 161.022 166.800,161.200 165.733,161.200 164.400 C 161.200 163.067,161.378 162.000,161.600 162.000 C 161.851 162.000,162.000 159.525,162.000 155.376 C 162.000 151.494,161.849 148.846,161.636 148.978 C 161.435 149.102,161.177 148.167,161.062 146.902 C 160.761 143.604,160.366 141.626,159.956 141.373 C 159.760 141.252,159.600 140.613,159.600 139.953 C 159.600 139.293,159.440 138.852,159.245 138.972 C 158.943 139.159,158.555 137.954,158.327 136.117 C 158.294 135.852,158.030 135.543,157.740 135.432 C 157.450 135.321,157.320 134.953,157.450 134.615 C 157.603 134.215,157.455 134.000,157.025 134.000 C 156.662 134.000,156.392 133.775,156.426 133.500 C 156.521 132.718,155.945 131.200,155.553 131.200 C 155.359 131.200,155.200 130.870,155.200 130.467 C 155.200 129.408,145.395 118.800,144.416 118.800 C 144.207 118.800,143.586 118.350,143.036 117.800 C 142.486 117.250,141.838 116.800,141.595 116.800 C 141.352 116.800,141.264 116.620,141.400 116.400 C 141.536 116.180,141.277 116.000,140.824 116.000 C 140.371 116.000,140.000 115.820,140.000 115.600 C 140.000 115.380,139.640 115.200,139.200 115.200 C 138.760 115.200,138.400 115.020,138.400 114.800 C 138.400 114.580,138.130 114.400,137.800 114.400 C 137.113 114.400,136.944 112.205,137.600 111.800 C 137.820 111.664,138.000 110.753,138.000 109.776 C 138.000 108.799,138.180 108.000,138.400 108.000 C 138.620 108.000,138.800 107.190,138.800 106.200 C 138.800 105.210,138.951 104.400,139.135 104.400 C 139.320 104.400,139.494 103.761,139.524 102.980 C 139.553 102.199,139.706 101.353,139.863 101.098 C 140.118 100.685,140.424 99.065,140.504 97.700 C 140.520 97.425,140.639 97.200,140.768 97.200 C 140.896 97.200,141.032 96.705,141.069 96.100 C 141.105 95.495,141.340 93.920,141.591 92.600 C 141.841 91.280,142.145 89.524,142.265 88.697 C 142.386 87.871,142.645 87.095,142.842 86.974 C 143.039 86.852,143.200 86.133,143.200 85.376 C 143.200 84.619,143.380 84.000,143.600 84.000 C 143.820 84.000,144.000 83.010,144.000 81.800 C 144.000 80.590,144.180 79.600,144.400 79.600 C 144.620 79.600,144.800 78.970,144.800 78.200 C 144.800 77.430,144.980 76.800,145.200 76.800 C 145.448 76.800,145.600 74.592,145.600 70.976 C 145.600 67.196,145.460 65.240,145.200 65.400 C 144.863 65.608,144.583 64.172,144.753 63.100 C 144.779 62.935,144.620 62.800,144.400 62.800 C 144.180 62.800,144.000 62.429,144.000 61.976 C 144.000 61.523,143.820 61.264,143.600 61.400 C 143.380 61.536,143.200 61.299,143.200 60.874 C 143.200 60.448,142.411 59.277,141.447 58.270 C 140.482 57.264,139.762 56.371,139.846 56.287 C 139.930 56.203,139.549 55.894,138.999 55.600 C 138.450 55.306,138.000 54.915,138.000 54.732 C 138.000 54.550,137.764 54.400,137.475 54.400 C 137.187 54.400,136.564 54.040,136.092 53.600 C 135.620 53.160,134.877 52.800,134.440 52.800 C 134.004 52.800,133.536 52.620,133.400 52.400 C 133.264 52.180,132.703 52.000,132.153 52.000 C 131.603 52.000,131.250 51.842,131.370 51.649 C 131.489 51.456,129.750 51.267,127.505 51.228 C 122.679 51.145,123.161 51.452,123.147 48.450 C 123.141 47.106,122.970 45.905,122.768 45.780 C 122.565 45.655,122.396 45.158,122.391 44.676 C 122.386 44.194,122.030 43.350,121.600 42.800 C 121.170 42.250,120.814 41.637,120.809 41.438 C 120.804 41.239,120.358 40.496,119.817 39.787 C 119.277 39.079,118.947 38.387,119.084 38.249 C 119.221 38.112,119.110 38.000,118.838 38.000 C 118.566 38.000,118.111 37.775,117.827 37.500 C 116.280 36.000,114.759 34.800,114.403 34.800 C 114.182 34.800,114.000 34.654,114.000 34.475 C 114.000 34.296,113.370 33.902,112.600 33.600 C 111.830 33.298,111.200 32.904,111.200 32.725 C 111.200 32.546,111.065 32.421,110.900 32.447 C 109.897 32.606,108.387 32.344,108.573 32.044 C 108.696 31.844,106.697 31.660,104.031 31.626 C 101.086 31.588,99.171 31.724,99.011 31.982 M104.800 45.902 C 104.800 46.069,105.385 46.463,106.100 46.778 C 107.688 47.478,108.400 48.149,108.400 48.948 C 108.400 49.281,108.535 49.636,108.700 49.738 C 108.865 49.840,108.953 63.400,108.895 79.872 L 108.790 109.821 107.195 109.800 C 106.318 109.788,105.600 109.897,105.600 110.043 C 105.600 110.420,103.729 110.727,103.247 110.429 C 103.020 110.289,102.813 108.248,102.777 105.789 C 102.742 103.375,102.560 101.210,102.373 100.979 C 102.186 100.747,102.007 98.272,101.976 95.479 C 101.944 92.685,101.757 90.400,101.559 90.400 C 101.362 90.400,101.200 88.276,101.200 85.680 C 101.200 83.084,101.029 80.789,100.820 80.580 C 100.611 80.371,100.411 78.085,100.375 75.500 C 100.339 72.915,100.150 70.800,99.955 70.800 C 99.760 70.800,99.600 68.550,99.600 65.800 C 99.600 62.733,99.445 60.800,99.200 60.800 C 98.952 60.800,98.800 58.587,98.800 54.960 L 98.800 49.120 100.110 47.860 C 102.141 45.905,104.800 44.796,104.800 45.902 M295.800 58.200 L 295.800 65.200 322.300 65.200 L 348.800 65.200 348.800 58.200 L 348.800 51.200 322.300 51.200 L 295.800 51.200 295.800 58.200 M128.008 65.810 C 128.286 66.145,128.605 66.328,128.717 66.217 C 129.048 65.885,130.799 68.141,130.800 68.900 C 130.800 69.285,130.980 69.600,131.200 69.600 C 131.420 69.600,131.600 70.230,131.600 71.000 C 131.600 71.770,131.454 72.400,131.275 72.400 C 131.096 72.400,130.905 73.251,130.852 74.291 C 130.798 75.331,130.594 76.280,130.398 76.401 C 130.203 76.522,129.999 77.370,129.945 78.286 C 129.891 79.203,129.701 79.862,129.523 79.753 C 129.345 79.643,129.200 80.373,129.200 81.376 C 129.200 82.379,129.065 83.200,128.900 83.201 C 128.735 83.201,128.553 83.860,128.495 84.666 C 128.437 85.471,128.214 86.342,127.999 86.602 C 127.783 86.861,127.716 87.183,127.850 87.316 C 127.983 87.450,127.873 88.153,127.604 88.880 C 127.335 89.606,127.048 91.009,126.966 91.997 C 126.883 92.986,126.631 93.856,126.406 93.931 C 126.180 94.007,126.099 94.237,126.227 94.443 C 126.354 94.649,126.183 95.669,125.847 96.709 C 125.511 97.749,125.283 99.185,125.341 99.900 C 125.399 100.615,125.301 101.200,125.123 101.200 C 124.945 101.200,124.800 101.819,124.800 102.576 C 124.800 103.333,124.620 104.064,124.400 104.200 C 124.180 104.336,124.000 105.146,124.000 106.000 C 124.000 106.854,123.820 107.664,123.600 107.800 C 123.335 107.964,123.200 100.804,123.200 86.624 L 123.200 65.200 125.351 65.200 C 126.790 65.200,127.669 65.402,128.008 65.810 M276.774 106.900 C 276.722 141.326,276.774 138.000,276.291 138.000 C 276.084 138.000,276.010 138.250,276.127 138.555 C 276.613 139.821,273.204 142.410,270.800 142.602 C 270.470 142.628,269.930 142.753,269.600 142.879 C 269.003 143.107,265.582 144.119,265.200 144.180 C 265.090 144.198,264.775 144.355,264.500 144.530 C 264.225 144.704,264.000 144.726,264.000 144.578 C 264.000 144.429,263.554 144.600,263.008 144.958 C 262.463 145.315,261.563 145.645,261.008 145.691 C 260.454 145.737,260.000 145.883,260.000 146.016 C 260.000 146.314,256.322 148.000,255.672 148.000 C 255.412 148.000,255.200 148.180,255.200 148.400 C 255.200 148.620,254.829 148.800,254.376 148.800 C 253.923 148.800,253.664 148.980,253.800 149.200 C 253.936 149.420,253.782 149.600,253.457 149.600 C 253.132 149.600,252.807 149.766,252.733 149.970 C 252.660 150.173,252.330 150.398,252.000 150.470 C 251.670 150.541,251.109 150.915,250.753 151.300 C 250.397 151.685,249.936 152.000,249.728 152.000 C 249.520 152.000,248.845 152.527,248.228 153.171 C 247.611 153.815,246.589 154.556,245.958 154.817 C 245.327 155.079,244.909 155.452,245.029 155.646 C 245.149 155.841,244.956 156.000,244.600 156.000 C 244.244 156.000,244.064 156.180,244.200 156.400 C 244.336 156.620,244.235 156.800,243.976 156.800 C 243.473 156.800,241.217 159.182,241.206 159.724 C 241.203 159.902,241.020 159.936,240.800 159.800 C 240.580 159.664,240.400 159.844,240.400 160.200 C 240.400 160.556,240.240 160.748,240.044 160.627 C 239.848 160.506,239.394 161.025,239.036 161.781 C 238.677 162.536,237.977 163.480,237.479 163.877 C 236.981 164.275,236.273 165.230,235.905 166.000 C 235.538 166.770,234.772 167.895,234.203 168.500 C 233.633 169.105,233.277 169.600,233.411 169.600 C 233.545 169.600,233.288 170.115,232.839 170.745 C 232.391 171.375,232.138 172.005,232.278 172.145 C 232.419 172.285,232.323 172.400,232.067 172.400 C 231.810 172.400,231.600 172.771,231.600 173.224 C 231.600 173.677,231.420 173.936,231.200 173.800 C 230.973 173.660,230.800 173.996,230.800 174.576 C 230.800 175.139,230.662 175.600,230.494 175.600 C 230.085 175.600,228.672 178.755,228.542 179.961 C 228.485 180.489,228.250 181.110,228.019 181.341 C 227.789 181.571,227.600 182.174,227.600 182.680 C 227.600 183.186,227.420 183.600,227.200 183.600 C 226.980 183.600,226.800 184.410,226.800 185.400 C 226.800 186.390,226.632 187.200,226.427 187.200 C 226.221 187.200,226.064 187.695,226.077 188.300 C 226.090 188.905,225.919 190.120,225.696 191.000 C 225.183 193.023,225.388 207.927,225.964 210.544 C 226.200 211.614,226.293 212.649,226.173 212.844 C 226.052 213.040,226.143 213.200,226.376 213.200 C 226.609 213.200,226.800 213.905,226.800 214.767 C 226.800 215.628,226.969 216.393,227.175 216.467 C 227.382 216.540,227.624 217.050,227.714 217.600 C 227.804 218.150,228.009 218.901,228.169 219.269 C 228.330 219.637,228.499 220.177,228.545 220.469 C 228.591 220.761,228.937 221.613,229.314 222.361 C 229.691 223.110,230.000 223.965,230.000 224.261 C 230.000 224.558,230.180 224.800,230.400 224.800 C 230.620 224.800,230.800 225.250,230.800 225.800 C 230.800 226.350,230.960 226.800,231.156 226.800 C 231.352 226.800,231.895 227.565,232.364 228.500 C 233.636 231.037,234.803 232.904,235.544 233.589 C 235.908 233.925,236.460 234.695,236.770 235.300 C 237.081 235.905,237.485 236.400,237.668 236.400 C 237.850 236.400,238.000 236.664,238.000 236.986 C 238.000 237.308,238.360 237.765,238.800 238.000 C 239.240 238.235,239.600 238.615,239.600 238.843 C 239.600 239.424,240.653 240.414,240.952 240.114 C 241.089 239.978,241.200 240.155,241.200 240.506 C 241.200 240.858,241.563 241.261,242.006 241.402 C 242.449 241.543,242.708 241.825,242.582 242.029 C 242.456 242.233,242.663 242.400,243.043 242.400 C 243.423 242.400,243.624 242.509,243.491 242.642 C 243.164 242.969,244.663 244.414,246.500 245.543 C 247.325 246.050,248.000 246.631,248.000 246.833 C 248.000 247.035,248.270 247.200,248.600 247.200 C 248.930 247.200,249.200 247.380,249.200 247.600 C 249.200 247.820,249.470 248.000,249.800 248.000 C 250.130 248.000,250.400 248.158,250.400 248.351 C 250.400 248.545,250.940 248.927,251.600 249.200 C 252.260 249.473,252.800 249.855,252.800 250.049 C 252.800 250.242,253.158 250.400,253.597 250.400 C 254.035 250.400,254.618 250.760,254.893 251.200 C 255.168 251.640,255.601 252.000,255.856 252.000 C 256.110 252.000,257.345 252.540,258.600 253.200 C 259.855 253.860,261.118 254.400,261.407 254.400 C 261.697 254.400,261.993 254.538,262.067 254.706 C 262.213 255.042,266.418 256.457,267.990 256.699 C 268.535 256.783,269.165 257.000,269.390 257.182 C 269.616 257.363,270.295 257.535,270.900 257.564 C 272.806 257.655,273.200 257.726,273.200 257.981 C 273.200 258.269,272.736 258.233,281.258 258.617 C 284.920 258.783,288.250 258.775,288.658 258.599 C 289.066 258.424,290.480 258.256,291.800 258.225 C 293.120 258.194,294.581 257.957,295.047 257.699 C 295.513 257.440,295.991 257.325,296.109 257.442 C 296.227 257.560,297.617 257.272,299.197 256.801 C 300.778 256.330,302.415 255.919,302.836 255.887 C 303.256 255.856,303.600 255.688,303.600 255.515 C 303.600 255.342,303.872 255.200,304.205 255.200 C 304.538 255.200,305.123 255.035,305.505 254.833 C 307.207 253.933,310.044 252.800,310.596 252.800 C 310.928 252.800,311.200 252.611,311.200 252.379 C 311.200 252.148,311.740 251.770,312.400 251.540 C 313.060 251.310,313.600 250.959,313.600 250.761 C 313.600 250.562,313.799 250.400,314.042 250.400 C 314.286 250.400,315.167 249.860,316.000 249.200 C 316.833 248.540,317.714 248.000,317.958 248.000 C 318.201 248.000,318.405 247.865,318.411 247.700 C 318.417 247.535,319.128 246.964,319.992 246.431 C 320.856 245.899,321.470 245.314,321.358 245.131 C 321.245 244.949,321.433 244.800,321.776 244.800 C 322.119 244.800,322.400 244.616,322.400 244.391 C 322.400 244.167,322.844 243.780,323.387 243.533 C 323.931 243.285,324.280 242.929,324.164 242.742 C 324.048 242.554,324.098 242.400,324.276 242.400 C 324.454 242.399,325.123 241.949,325.762 241.400 C 326.401 240.850,326.807 240.400,326.665 240.400 C 326.522 240.400,327.214 239.579,328.202 238.576 C 329.191 237.574,330.000 236.573,330.000 236.353 C 330.000 236.133,330.180 236.064,330.400 236.200 C 330.620 236.336,330.800 236.077,330.800 235.624 C 330.800 235.171,330.941 234.800,331.114 234.800 C 331.286 234.800,331.720 234.305,332.079 233.700 C 332.437 233.095,333.102 232.172,333.556 231.648 C 334.011 231.125,334.307 230.573,334.213 230.421 C 334.119 230.270,334.393 229.893,334.821 229.585 C 335.250 229.276,335.600 228.703,335.600 228.312 C 335.600 227.920,335.780 227.600,336.000 227.600 C 336.220 227.600,336.400 227.240,336.400 226.800 C 336.400 226.360,336.580 226.000,336.800 226.000 C 337.020 226.000,337.200 225.640,337.200 225.200 C 337.200 224.760,337.380 224.400,337.600 224.400 C 337.820 224.400,338.000 223.939,338.000 223.376 C 338.000 222.796,338.173 222.460,338.400 222.600 C 338.626 222.740,338.800 222.412,338.800 221.847 C 338.800 221.297,338.980 220.736,339.200 220.600 C 339.420 220.464,339.600 219.998,339.600 219.564 C 339.600 219.130,339.958 217.713,340.395 216.416 C 340.832 215.119,341.308 212.779,341.453 211.216 C 341.598 209.653,341.871 208.280,342.059 208.164 C 342.510 207.885,342.502 192.106,342.051 191.933 C 341.859 191.860,341.598 190.630,341.471 189.200 C 341.173 185.847,341.032 185.194,340.535 184.868 C 340.310 184.721,340.170 184.015,340.223 183.301 C 340.277 182.587,340.158 182.102,339.960 182.225 C 339.602 182.446,339.443 181.640,339.579 180.300 C 339.618 179.915,339.459 179.600,339.225 179.600 C 338.991 179.600,338.800 179.161,338.800 178.624 C 338.800 178.087,338.620 177.536,338.400 177.400 C 338.180 177.264,338.000 176.803,338.000 176.376 C 338.000 175.949,337.820 175.600,337.600 175.600 C 337.380 175.600,337.200 175.240,337.200 174.800 C 337.200 174.360,337.042 174.000,336.849 174.000 C 336.453 174.000,335.352 171.581,335.515 171.070 C 335.573 170.889,335.471 170.832,335.290 170.944 C 335.109 171.057,334.731 170.781,334.451 170.332 C 334.032 169.662,334.036 169.565,334.470 169.789 C 334.762 169.938,334.595 169.703,334.100 169.266 C 333.605 168.829,333.200 168.276,333.200 168.036 C 333.200 167.796,333.020 167.600,332.800 167.600 C 332.580 167.600,332.400 167.229,332.400 166.776 C 332.400 166.323,332.220 166.064,332.000 166.200 C 331.780 166.336,331.600 166.167,331.600 165.824 C 331.600 165.481,331.420 165.200,331.200 165.200 C 330.980 165.200,330.800 164.968,330.800 164.683 C 330.800 164.399,330.152 163.454,329.360 162.583 C 324.931 157.713,324.024 156.800,323.609 156.800 C 323.358 156.800,323.264 156.620,323.400 156.400 C 323.536 156.180,323.429 156.000,323.161 156.000 C 322.894 156.000,321.969 155.280,321.107 154.400 C 320.244 153.520,319.272 152.800,318.946 152.800 C 318.620 152.800,318.464 152.620,318.600 152.400 C 318.736 152.180,318.649 152.000,318.407 152.000 C 318.165 152.000,317.580 151.640,317.108 151.200 C 316.636 150.760,316.013 150.400,315.725 150.400 C 315.436 150.400,315.200 150.220,315.200 150.000 C 315.200 149.780,314.954 149.600,314.654 149.600 C 314.354 149.600,313.679 149.277,313.154 148.882 C 312.629 148.487,311.390 147.823,310.400 147.407 C 309.410 146.991,308.254 146.369,307.831 146.025 C 307.181 145.496,307.116 145.492,307.408 146.000 C 307.691 146.491,307.646 146.513,307.158 146.119 C 306.100 145.263,304.769 145.655,304.521 146.896 C 304.398 147.512,304.140 148.114,303.948 148.232 C 303.757 148.350,303.600 148.807,303.600 149.247 C 303.600 149.687,303.457 149.959,303.283 149.851 C 303.109 149.744,302.939 150.014,302.906 150.451 C 302.828 151.494,301.889 153.600,301.502 153.600 C 301.336 153.600,301.200 154.140,301.200 154.800 C 301.200 155.460,301.020 156.000,300.800 156.000 C 300.580 156.000,300.400 156.611,300.400 157.357 C 300.400 158.646,300.542 158.781,303.200 160.028 C 304.740 160.751,306.000 161.490,306.000 161.671 C 306.000 161.852,306.360 162.000,306.800 162.000 C 307.240 162.000,307.600 162.180,307.600 162.400 C 307.600 162.620,307.881 162.800,308.224 162.800 C 308.567 162.800,308.736 162.980,308.600 163.200 C 308.464 163.420,308.633 163.600,308.976 163.600 C 309.319 163.600,309.600 163.780,309.600 164.000 C 309.600 164.220,309.900 164.400,310.267 164.400 C 310.633 164.400,310.816 164.517,310.673 164.660 C 310.304 165.029,311.650 165.972,312.567 165.987 C 312.988 165.994,313.227 166.107,313.097 166.237 C 312.966 166.367,313.926 167.487,315.230 168.726 C 316.533 169.965,317.600 171.165,317.600 171.393 C 317.600 171.621,317.960 172.032,318.400 172.307 C 318.840 172.582,319.200 173.086,319.200 173.427 C 319.200 173.768,319.380 173.936,319.600 173.800 C 319.820 173.664,320.000 173.884,320.000 174.288 C 320.000 174.693,320.360 175.283,320.800 175.600 C 321.240 175.917,321.600 176.407,321.600 176.688 C 321.600 176.970,321.780 177.200,322.000 177.200 C 322.220 177.200,322.400 177.661,322.400 178.224 C 322.400 178.804,322.573 179.140,322.800 179.000 C 323.020 178.864,323.200 179.033,323.200 179.376 C 323.200 179.719,323.391 180.000,323.624 180.000 C 323.857 180.000,323.956 180.148,323.844 180.329 C 323.732 180.509,323.902 181.160,324.220 181.774 C 324.539 182.389,324.800 183.141,324.800 183.446 C 324.800 183.751,324.974 184.000,325.187 184.000 C 325.401 184.000,325.471 184.270,325.345 184.600 C 325.218 184.930,325.286 185.200,325.496 185.200 C 325.706 185.200,325.894 185.767,325.914 186.461 C 325.934 187.154,326.096 187.829,326.275 187.961 C 326.454 188.092,326.666 188.650,326.746 189.200 C 326.996 190.910,327.015 190.988,327.302 191.447 C 327.455 191.692,327.624 193.087,327.677 194.547 C 327.730 196.006,327.887 197.200,328.026 197.200 C 328.410 197.200,328.489 202.698,328.108 202.933 C 327.925 203.046,327.731 204.367,327.677 205.869 C 327.591 208.263,327.301 209.730,326.466 212.000 C 326.345 212.330,326.225 212.780,326.199 213.000 C 326.174 213.220,325.994 213.850,325.800 214.400 C 325.606 214.950,325.489 215.760,325.541 216.200 C 325.619 216.862,325.565 216.897,325.224 216.400 C 324.884 215.905,324.811 215.953,324.806 216.676 C 324.803 217.158,324.620 217.664,324.400 217.800 C 324.180 217.936,324.000 218.487,324.000 219.024 C 324.000 219.561,323.852 220.000,323.671 220.000 C 323.491 220.000,322.936 220.900,322.439 222.000 C 321.942 223.100,321.369 224.000,321.167 224.000 C 320.965 224.000,320.800 224.281,320.800 224.624 C 320.800 224.967,320.620 225.136,320.400 225.000 C 320.179 224.863,320.000 225.151,320.000 225.643 C 320.000 226.133,319.889 226.422,319.752 226.286 C 319.424 225.957,318.646 226.765,317.891 228.220 C 317.210 229.532,313.492 233.200,312.843 233.200 C 312.615 233.200,312.235 233.560,312.000 234.000 C 311.765 234.440,311.397 234.800,311.182 234.800 C 310.968 234.800,310.234 235.334,309.551 235.986 C 308.868 236.639,307.790 237.403,307.155 237.684 C 306.520 237.965,306.000 238.331,306.000 238.498 C 306.000 238.664,305.745 238.800,305.433 238.800 C 305.122 238.800,304.804 238.988,304.727 239.218 C 304.651 239.448,304.198 239.665,303.722 239.701 C 303.245 239.737,302.944 239.909,303.051 240.083 C 303.159 240.257,302.787 240.400,302.224 240.400 C 301.661 240.400,301.200 240.580,301.200 240.800 C 301.200 241.020,300.851 241.200,300.424 241.200 C 299.997 241.200,299.536 241.380,299.400 241.600 C 299.264 241.820,298.703 242.000,298.153 242.000 C 297.603 242.000,297.254 242.164,297.378 242.365 C 297.502 242.566,297.114 242.676,296.516 242.611 C 295.304 242.478,294.319 242.746,294.565 243.143 C 294.653 243.285,293.977 243.397,293.062 243.391 C 292.148 243.385,291.040 243.553,290.600 243.764 C 289.570 244.259,279.435 244.371,277.600 243.907 C 276.160 243.544,274.332 243.215,273.100 243.097 C 272.715 243.060,272.400 242.905,272.400 242.752 C 272.400 242.600,272.060 242.564,271.645 242.672 C 271.230 242.781,270.769 242.674,270.622 242.435 C 270.474 242.196,270.001 242.000,269.571 242.000 C 269.141 242.000,268.432 241.820,267.995 241.600 C 267.558 241.380,266.842 241.020,266.405 240.800 C 265.968 240.580,265.338 240.400,265.005 240.400 C 264.672 240.400,264.400 240.262,264.400 240.094 C 264.400 239.926,263.725 239.494,262.900 239.134 C 262.075 238.774,260.860 238.012,260.200 237.440 C 259.540 236.869,258.777 236.401,258.503 236.400 C 258.230 236.400,257.782 236.040,257.507 235.600 C 257.232 235.160,256.845 234.800,256.647 234.800 C 256.228 234.800,248.800 227.449,248.800 227.033 C 248.800 226.684,246.309 223.448,245.900 223.267 C 245.735 223.193,245.600 222.788,245.600 222.367 C 245.600 221.945,245.460 221.600,245.288 221.600 C 244.827 221.600,242.400 216.279,242.400 215.268 C 242.400 214.791,242.237 214.400,242.038 214.400 C 241.838 214.400,241.548 213.455,241.393 212.300 C 241.237 211.145,240.930 209.976,240.709 209.703 C 240.000 208.826,239.253 196.200,239.831 194.850 C 239.983 194.492,240.173 193.480,240.252 192.600 C 240.471 190.165,240.509 190.000,240.854 190.000 C 241.031 190.000,241.071 189.730,240.945 189.400 C 240.818 189.070,240.853 188.485,241.023 188.100 C 241.192 187.715,241.352 187.310,241.378 187.200 C 241.780 185.495,242.646 183.200,242.887 183.200 C 243.059 183.200,243.200 182.840,243.200 182.400 C 243.200 181.960,243.380 181.600,243.600 181.600 C 243.820 181.600,244.000 181.139,244.000 180.576 C 244.000 179.996,244.173 179.660,244.400 179.800 C 244.620 179.936,244.800 179.677,244.800 179.224 C 244.800 178.771,244.980 178.400,245.200 178.400 C 245.420 178.400,245.600 178.080,245.600 177.688 C 245.600 177.297,245.960 176.717,246.400 176.400 C 246.840 176.083,247.200 175.493,247.200 175.088 C 247.200 174.684,247.353 174.447,247.540 174.563 C 247.727 174.678,248.130 174.284,248.436 173.686 C 248.742 173.089,249.759 171.827,250.696 170.881 C 251.633 169.936,252.400 168.991,252.400 168.781 C 252.400 168.572,252.658 168.400,252.973 168.400 C 253.288 168.400,253.647 168.084,253.769 167.697 C 253.892 167.310,254.703 166.554,255.571 166.018 C 256.439 165.481,257.060 164.898,256.951 164.721 C 256.842 164.545,257.033 164.400,257.376 164.400 C 257.719 164.400,258.000 164.220,258.000 164.000 C 258.000 163.780,258.270 163.600,258.600 163.600 C 258.930 163.600,259.200 163.420,259.200 163.200 C 259.200 162.980,259.388 162.800,259.617 162.800 C 259.846 162.800,260.420 162.440,260.892 162.000 C 261.364 161.560,262.043 161.200,262.400 161.200 C 262.757 161.200,263.436 160.840,263.908 160.400 C 264.380 159.960,265.224 159.600,265.783 159.600 C 266.342 159.600,266.800 159.420,266.800 159.200 C 266.800 158.980,267.171 158.800,267.624 158.800 C 268.077 158.800,268.346 158.637,268.223 158.437 C 268.100 158.238,268.332 158.162,268.740 158.268 C 269.147 158.375,269.777 158.166,270.139 157.804 C 270.519 157.424,271.111 157.245,271.538 157.380 C 271.946 157.510,272.778 157.356,273.389 157.039 C 274.000 156.723,274.723 156.549,274.997 156.654 C 275.270 156.759,276.600 156.310,277.951 155.655 C 279.301 155.001,280.286 154.676,280.139 154.933 C 279.992 155.190,280.365 154.950,280.968 154.400 C 281.571 153.850,282.154 153.461,282.264 153.535 C 282.582 153.750,286.157 150.339,287.227 148.800 C 287.762 148.030,288.290 147.310,288.401 147.200 C 289.502 146.102,291.298 139.635,290.984 137.900 C 290.725 136.475,290.816 136.448,296.130 136.374 C 298.699 136.339,300.800 136.182,300.800 136.026 C 300.800 135.871,301.745 135.701,302.900 135.649 C 304.055 135.598,305.060 135.386,305.133 135.178 C 305.207 134.970,305.882 134.800,306.633 134.800 C 307.385 134.800,308.000 134.620,308.000 134.400 C 308.000 134.180,308.360 134.000,308.800 134.000 C 309.240 134.000,309.600 133.820,309.600 133.600 C 309.600 133.380,309.735 133.221,309.900 133.247 C 310.776 133.386,311.538 133.118,312.308 132.400 C 312.780 131.960,313.367 131.600,313.612 131.600 C 313.857 131.600,314.329 131.328,314.661 130.996 C 314.993 130.664,315.458 130.512,315.694 130.658 C 315.949 130.815,316.007 130.736,315.838 130.462 C 315.681 130.208,315.758 130.000,316.008 130.000 C 316.258 130.000,317.128 129.325,317.941 128.500 C 318.753 127.675,319.684 126.941,320.009 126.870 C 320.334 126.798,320.655 126.589,320.722 126.405 C 320.789 126.221,321.289 125.559,321.833 124.935 C 323.541 122.977,323.800 122.629,323.800 122.295 C 323.800 122.117,324.048 121.818,324.351 121.630 C 324.654 121.443,324.779 121.089,324.628 120.845 C 324.476 120.600,324.510 120.400,324.702 120.400 C 324.894 120.400,325.298 119.770,325.600 119.000 C 325.902 118.230,326.296 117.600,326.475 117.600 C 326.654 117.600,326.800 117.240,326.800 116.800 C 326.800 116.360,326.980 116.000,327.200 116.000 C 327.420 116.000,327.600 115.651,327.600 115.224 C 327.600 114.797,327.780 114.336,328.000 114.200 C 328.220 114.064,328.400 113.333,328.400 112.576 C 328.400 111.819,328.580 111.200,328.800 111.200 C 329.034 111.200,329.200 109.859,329.200 107.976 C 329.200 105.929,329.346 104.843,329.600 105.000 C 330.269 105.414,330.116 97.258,329.441 96.584 C 328.833 95.976,307.488 95.497,307.861 96.100 C 307.964 96.265,306.787 96.400,305.247 96.400 C 303.707 96.400,302.336 96.580,302.200 96.800 C 302.064 97.020,301.344 97.200,300.600 97.200 C 299.856 97.200,299.136 97.380,299.000 97.600 C 298.864 97.820,298.418 98.000,298.010 98.000 C 297.601 98.000,297.204 98.188,297.127 98.418 C 297.051 98.648,296.586 98.866,296.094 98.903 C 295.602 98.940,295.200 99.077,295.200 99.207 C 295.200 99.336,294.300 99.929,293.200 100.523 L 291.200 101.603 291.200 90.452 C 291.200 84.318,291.088 78.738,290.950 78.050 L 290.700 76.800 283.760 76.800 L 276.819 76.800 276.774 106.900 M313.600 111.000 C 313.600 111.330,313.420 111.600,313.200 111.600 C 312.980 111.600,312.800 111.839,312.800 112.130 C 312.800 112.422,312.356 113.078,311.812 113.588 C 311.269 114.099,310.903 114.643,310.999 114.798 C 311.168 115.073,309.417 116.800,308.968 116.800 C 308.529 116.800,307.642 117.908,307.886 118.152 C 308.022 118.289,307.910 118.400,307.638 118.400 C 307.366 118.400,306.871 118.672,306.539 119.004 C 306.207 119.336,305.770 119.505,305.568 119.380 C 305.365 119.255,305.200 119.322,305.200 119.530 C 305.200 119.737,304.885 120.011,304.500 120.139 C 304.115 120.267,303.080 120.645,302.200 120.980 C 299.596 121.970,293.200 121.842,293.200 120.800 C 293.200 120.360,293.380 120.000,293.600 120.000 C 293.820 120.000,294.000 119.629,294.000 119.176 C 294.000 118.723,294.180 118.464,294.400 118.600 C 294.620 118.736,294.800 118.645,294.800 118.398 C 294.800 117.871,298.983 113.600,299.498 113.600 C 299.691 113.600,300.284 113.195,300.815 112.700 C 301.347 112.205,301.830 111.845,301.891 111.900 C 302.228 112.208,303.607 111.934,303.400 111.600 C 303.253 111.361,303.737 111.200,304.600 111.200 C 305.463 111.200,305.947 111.039,305.800 110.800 C 305.641 110.543,306.996 110.400,309.576 110.400 C 312.886 110.400,313.600 110.506,313.600 111.000 M120.682 123.777 C 121.828 123.874,123.125 124.146,123.566 124.382 C 124.007 124.618,124.510 124.784,124.684 124.752 C 125.356 124.627,127.600 125.318,127.600 125.650 C 127.600 125.843,128.035 126.000,128.567 126.000 C 129.098 126.000,129.593 126.135,129.667 126.300 C 129.740 126.465,130.655 127.033,131.700 127.563 C 132.745 128.092,133.600 128.677,133.600 128.863 C 133.600 129.048,133.804 129.200,134.053 129.200 C 134.302 129.200,134.797 129.516,135.153 129.903 C 135.509 130.289,136.295 130.860,136.900 131.170 C 137.505 131.481,138.000 131.985,138.000 132.291 C 138.000 132.597,138.180 132.736,138.400 132.600 C 138.620 132.464,138.800 132.644,138.800 133.000 C 138.800 133.356,138.980 133.536,139.200 133.400 C 139.420 133.264,139.600 133.433,139.600 133.776 C 139.600 134.119,139.780 134.400,140.000 134.400 C 140.220 134.400,140.400 134.578,140.400 134.797 C 140.400 135.015,140.957 135.725,141.637 136.375 C 142.317 137.025,142.757 137.747,142.613 137.979 C 142.470 138.210,142.543 138.400,142.776 138.400 C 143.009 138.400,143.200 138.760,143.200 139.200 C 143.200 139.640,143.358 140.000,143.551 140.000 C 143.915 140.000,144.941 142.156,144.807 142.638 C 144.766 142.788,144.945 143.042,145.205 143.203 C 145.465 143.364,145.706 143.969,145.739 144.547 C 145.773 145.126,145.935 145.600,146.100 145.600 C 146.265 145.600,146.400 146.241,146.400 147.024 C 146.400 147.871,146.562 148.347,146.800 148.200 C 147.157 147.979,147.299 149.925,147.328 155.400 C 147.346 159.066,147.042 163.250,146.743 163.435 C 146.555 163.552,146.400 164.177,146.400 164.824 C 146.400 165.471,146.220 166.000,146.000 166.000 C 145.780 166.000,145.600 166.529,145.600 167.176 C 145.600 167.823,145.405 168.473,145.168 168.620 C 144.930 168.767,144.840 169.305,144.968 169.815 C 145.096 170.325,144.976 170.980,144.700 171.271 C 144.425 171.562,144.149 172.423,144.087 173.184 C 144.025 173.946,143.836 174.666,143.668 174.784 C 143.499 174.903,143.320 175.623,143.268 176.384 C 143.217 177.146,142.977 177.891,142.736 178.040 C 142.495 178.189,142.426 178.519,142.583 178.773 C 142.740 179.027,142.696 179.452,142.485 179.718 C 142.076 180.231,141.683 181.930,141.334 184.700 C 141.216 185.635,140.958 186.400,140.760 186.400 C 140.562 186.400,140.400 187.120,140.400 188.000 C 140.400 188.880,140.220 189.600,140.000 189.600 C 139.780 189.600,139.600 190.129,139.600 190.776 C 139.600 191.423,139.420 192.064,139.200 192.200 C 138.980 192.336,138.800 192.977,138.800 193.624 C 138.800 194.271,138.620 194.800,138.400 194.800 C 138.180 194.800,138.000 195.505,138.000 196.367 C 138.000 197.228,137.828 197.993,137.618 198.067 C 137.407 198.140,137.191 198.863,137.137 199.674 C 137.084 200.485,136.896 201.059,136.720 200.951 C 136.544 200.842,136.400 201.483,136.400 202.376 C 136.400 203.269,136.220 204.000,136.000 204.000 C 135.780 204.000,135.600 204.630,135.600 205.400 C 135.600 206.170,135.420 206.800,135.200 206.800 C 134.980 206.800,134.800 207.419,134.800 208.176 C 134.800 208.933,134.620 209.664,134.400 209.800 C 134.180 209.936,134.000 210.757,134.000 211.624 C 134.000 212.491,133.820 213.200,133.600 213.200 C 133.380 213.200,133.200 213.639,133.200 214.176 C 133.200 214.713,133.020 215.264,132.800 215.400 C 132.580 215.536,132.400 216.357,132.400 217.224 C 132.400 218.091,132.220 218.800,132.000 218.800 C 131.780 218.800,131.600 219.430,131.600 220.200 C 131.600 220.970,131.420 221.600,131.200 221.600 C 130.980 221.600,130.800 222.320,130.800 223.200 C 130.800 224.080,130.620 224.800,130.400 224.800 C 130.180 224.800,130.000 225.394,130.000 226.120 C 130.000 226.846,129.846 227.611,129.657 227.820 C 129.468 228.029,129.083 229.325,128.802 230.700 C 128.521 232.075,128.171 233.200,128.025 233.200 C 127.879 233.200,127.727 233.650,127.687 234.200 C 127.554 236.003,127.470 236.400,127.218 236.400 C 127.082 236.400,126.927 236.973,126.873 237.673 C 126.820 238.374,126.644 239.139,126.483 239.373 C 126.322 239.608,126.192 240.250,126.195 240.800 C 126.198 241.350,125.965 242.048,125.677 242.352 C 125.389 242.655,125.246 243.144,125.360 243.439 C 125.473 243.733,125.393 244.081,125.183 244.211 C 124.972 244.341,124.800 244.754,124.800 245.128 C 124.800 246.129,122.329 248.805,121.400 248.809 C 120.737 248.812,120.703 248.879,121.200 249.200 C 121.666 249.501,121.549 249.589,120.676 249.594 C 120.058 249.597,119.641 249.743,119.749 249.917 C 119.856 250.091,119.384 250.277,118.699 250.329 C 118.014 250.381,117.232 250.607,116.962 250.831 C 116.692 251.055,116.377 251.086,116.261 250.899 C 116.146 250.712,115.279 250.514,114.336 250.458 C 113.393 250.403,112.526 250.221,112.410 250.056 C 112.295 249.890,111.628 249.523,110.928 249.240 C 110.165 248.932,109.405 248.198,109.030 247.407 C 108.686 246.681,108.122 245.979,107.777 245.846 C 107.432 245.714,107.266 245.416,107.409 245.185 C 107.552 244.954,107.479 244.536,107.246 244.256 C 107.014 243.976,106.780 243.174,106.727 242.473 C 106.673 241.773,106.488 241.200,106.315 241.200 C 106.142 241.200,106.000 240.658,106.000 239.995 C 106.000 239.332,105.842 238.477,105.649 238.095 C 105.015 236.840,104.400 234.563,104.400 233.472 C 104.400 232.882,104.220 232.400,104.000 232.400 C 103.780 232.400,103.600 231.871,103.600 231.224 C 103.600 230.577,103.420 229.936,103.200 229.800 C 102.980 229.664,102.800 228.923,102.800 228.153 C 102.800 227.299,102.640 226.852,102.390 227.006 C 102.165 227.145,102.006 227.111,102.037 226.930 C 102.231 225.815,101.940 223.190,101.643 223.373 C 101.309 223.580,101.093 222.741,100.543 219.100 C 100.418 218.275,100.155 217.600,99.958 217.600 C 99.761 217.600,99.600 216.880,99.600 216.000 C 99.600 215.120,99.420 214.400,99.200 214.400 C 98.980 214.400,98.800 214.223,98.800 214.008 C 98.800 213.766,102.222 213.574,107.700 213.508 L 116.600 213.400 116.709 206.500 L 116.819 199.600 105.809 199.600 L 94.800 199.600 94.753 198.500 C 94.727 197.895,94.727 197.265,94.753 197.100 C 94.779 196.935,94.620 196.800,94.400 196.800 C 94.180 196.800,94.000 196.159,94.000 195.376 C 94.000 194.529,93.838 194.053,93.600 194.200 C 93.358 194.349,93.200 193.804,93.200 192.824 C 93.200 191.931,93.039 191.200,92.842 191.200 C 92.645 191.200,92.415 190.480,92.331 189.600 L 92.179 188.000 97.689 187.950 C 100.720 187.923,103.398 187.878,103.639 187.850 C 103.936 187.816,104.098 185.572,104.139 180.908 L 104.200 174.016 96.200 173.908 L 88.200 173.800 88.067 172.403 C 87.995 171.635,87.761 170.899,87.548 170.768 C 87.335 170.636,87.125 169.870,87.080 169.064 C 87.036 168.259,86.865 167.600,86.700 167.600 C 86.535 167.600,86.400 166.981,86.400 166.224 C 86.400 165.467,86.220 164.736,86.000 164.600 C 85.780 164.464,85.600 163.826,85.600 163.181 L 85.600 162.009 101.100 161.905 L 116.600 161.800 116.710 155.030 C 116.770 151.306,116.663 148.103,116.472 147.912 C 116.280 147.720,109.255 147.575,100.862 147.590 C 85.802 147.617,85.600 147.607,85.600 146.809 C 85.600 146.364,85.780 146.000,86.000 146.000 C 86.220 146.000,86.400 145.550,86.400 145.000 C 86.400 144.450,86.580 144.000,86.800 144.000 C 87.020 144.000,87.179 143.865,87.153 143.700 C 86.996 142.709,87.260 141.590,87.600 141.800 C 87.827 141.940,88.000 141.604,88.000 141.024 C 88.000 140.461,88.180 140.000,88.400 140.000 C 88.620 140.000,88.800 139.773,88.800 139.496 C 88.800 139.219,89.239 138.518,89.776 137.939 C 90.313 137.360,90.681 136.815,90.595 136.728 C 90.508 136.641,91.327 135.587,92.417 134.385 C 93.506 133.183,94.398 132.065,94.398 131.900 C 94.399 131.735,94.630 131.600,94.912 131.600 C 95.193 131.600,95.683 131.240,96.000 130.800 C 96.317 130.360,96.797 130.000,97.066 130.000 C 97.335 130.000,97.790 129.685,98.077 129.300 C 98.365 128.915,99.140 128.330,99.800 128.001 C 100.460 127.671,101.090 127.311,101.200 127.201 C 101.684 126.715,103.243 126.000,103.818 126.000 C 104.164 126.000,104.350 125.843,104.231 125.651 C 104.052 125.360,107.418 124.666,108.253 124.821 C 108.395 124.847,108.643 124.654,108.804 124.393 C 108.966 124.132,110.016 123.881,111.138 123.836 C 112.261 123.791,113.319 123.613,113.489 123.439 C 113.660 123.265,114.880 123.231,116.200 123.362 C 117.520 123.493,119.537 123.680,120.682 123.777 M283.644 167.347 C 283.314 167.745,283.184 170.001,283.219 174.760 L 283.269 181.600 285.634 181.600 C 286.935 181.600,288.000 181.741,288.000 181.913 C 288.000 182.085,288.485 182.266,289.078 182.315 C 289.670 182.364,290.275 182.598,290.422 182.836 C 290.569 183.074,290.804 183.253,290.945 183.234 C 292.116 183.077,292.940 183.250,292.462 183.553 C 292.064 183.806,292.190 183.961,292.948 184.151 C 293.511 184.293,294.420 184.856,294.968 185.404 C 295.515 185.952,296.182 186.400,296.448 186.400 C 296.715 186.400,296.846 186.487,296.740 186.593 C 296.634 186.700,297.414 187.710,298.473 188.839 C 299.533 189.967,300.400 191.230,300.400 191.645 C 300.400 192.060,300.580 192.400,300.800 192.400 C 301.020 192.400,301.200 192.940,301.200 193.600 C 301.200 194.260,301.380 194.800,301.600 194.800 C 301.820 194.800,302.000 195.599,302.000 196.576 C 302.000 197.553,302.180 198.464,302.400 198.600 C 302.620 198.736,302.800 199.197,302.800 199.624 C 302.800 200.363,303.138 200.400,309.821 200.400 L 316.842 200.400 316.763 197.400 C 316.719 195.750,316.529 194.400,316.342 194.400 C 316.154 194.400,316.000 193.680,316.000 192.800 C 316.000 191.920,315.820 191.200,315.600 191.200 C 315.380 191.200,315.200 190.469,315.200 189.576 C 315.200 188.596,315.042 188.051,314.800 188.200 C 314.573 188.340,314.400 188.004,314.400 187.424 C 314.400 186.861,314.220 186.400,314.000 186.400 C 313.780 186.400,313.600 186.040,313.600 185.600 C 313.600 185.160,313.420 184.800,313.200 184.800 C 312.980 184.800,312.800 184.440,312.800 184.000 C 312.800 183.560,312.620 183.200,312.400 183.200 C 312.180 183.200,312.000 182.880,312.000 182.488 C 312.000 182.097,311.640 181.517,311.200 181.200 C 310.760 180.883,310.400 180.383,310.400 180.088 C 310.400 179.794,310.220 179.664,310.000 179.800 C 309.780 179.936,309.600 179.666,309.600 179.200 C 309.600 178.734,309.420 178.464,309.200 178.600 C 308.980 178.736,308.800 178.649,308.800 178.408 C 308.800 177.859,305.714 174.800,305.160 174.800 C 304.936 174.800,304.864 174.620,305.000 174.400 C 305.136 174.180,304.959 174.000,304.607 174.000 C 304.255 174.000,303.580 173.640,303.108 173.200 C 302.636 172.760,302.002 172.400,301.701 172.400 C 301.399 172.400,301.264 172.220,301.400 172.000 C 301.536 171.780,301.266 171.600,300.800 171.600 C 300.334 171.600,300.064 171.420,300.200 171.200 C 300.336 170.980,300.077 170.800,299.624 170.800 C 299.171 170.800,298.800 170.620,298.800 170.400 C 298.800 170.180,298.440 170.000,298.000 170.000 C 297.560 170.000,297.200 169.840,297.200 169.644 C 297.200 169.448,296.570 169.178,295.800 169.044 C 295.030 168.910,293.770 168.690,293.000 168.556 C 292.230 168.422,291.600 168.152,291.600 167.956 C 291.600 167.760,290.711 167.600,289.624 167.600 C 288.537 167.600,287.558 167.456,287.449 167.280 C 287.087 166.693,284.143 166.745,283.644 167.347 M192.886 186.738 C 192.052 187.267,192.363 306.280,193.200 306.809 C 193.530 307.017,196.787 307.191,200.438 307.194 L 207.077 307.200 207.341 301.978 C 207.965 289.642,207.628 186.896,206.962 186.641 C 206.014 186.277,193.476 186.364,192.886 186.738 " stroke="none" fill="#1cd30c" fill-rule="evenodd"></path><path id="path1" d="M207.293 324.487 C 207.209 334.463,207.264 335.551,207.834 335.332 C 208.233 335.178,208.309 334.991,208.040 334.825 C 207.760 334.652,207.575 330.926,207.500 323.981 L 207.386 313.400 207.293 324.487 M267.400 340.000 L 266.200 340.305 267.276 340.353 C 267.868 340.379,268.464 340.220,268.600 340.000 C 268.736 339.780,268.792 339.621,268.724 339.647 C 268.656 339.673,268.060 339.832,267.400 340.000 M176.174 352.357 C 176.324 352.601,176.797 352.800,177.224 352.800 C 177.651 352.800,178.000 352.980,178.000 353.200 C 178.000 353.420,178.405 353.593,178.900 353.584 C 179.786 353.568,179.784 353.560,178.800 353.034 C 177.228 352.194,175.854 351.840,176.174 352.357 M221.400 352.843 C 219.329 353.734,218.122 354.114,217.235 354.155 C 215.911 354.217,215.636 355.200,216.943 355.200 C 217.498 355.200,218.064 355.020,218.200 354.800 C 218.336 354.580,218.797 354.400,219.224 354.400 C 219.651 354.400,220.000 354.220,220.000 354.000 C 220.000 353.780,220.439 353.600,220.976 353.600 C 221.513 353.600,222.071 353.408,222.216 353.173 C 222.595 352.561,222.318 352.449,221.400 352.843 M12.800 353.976 C 12.800 354.257,10.638 354.400,6.400 354.400 L 0.000 354.400 0.000 364.600 L 0.000 374.800 77.139 374.800 C 161.536 374.800,156.000 374.655,156.000 376.859 C 156.000 377.169,156.360 377.683,156.800 378.000 C 157.240 378.317,157.600 378.820,157.600 379.117 C 157.600 379.414,157.825 379.891,158.100 380.176 C 158.375 380.462,159.410 381.659,160.400 382.838 C 161.390 384.016,162.699 385.435,163.308 385.990 C 163.917 386.546,165.251 387.765,166.272 388.700 C 167.292 389.635,168.291 390.400,168.492 390.400 C 168.693 390.400,169.108 390.625,169.415 390.900 C 170.802 392.144,171.206 392.400,171.783 392.400 C 172.122 392.400,172.400 392.580,172.400 392.800 C 172.400 393.020,172.636 393.200,172.925 393.200 C 173.213 393.200,173.836 393.560,174.308 394.000 C 174.780 394.440,175.444 394.800,175.783 394.800 C 176.122 394.800,176.400 394.980,176.400 395.200 C 176.400 395.420,176.760 395.600,177.200 395.600 C 177.640 395.600,178.000 395.780,178.000 396.000 C 178.000 396.220,178.450 396.400,179.000 396.400 C 179.550 396.400,180.000 396.580,180.000 396.800 C 180.000 397.020,180.360 397.200,180.800 397.200 C 181.240 397.200,181.600 397.380,181.600 397.600 C 181.600 397.820,182.140 398.000,182.800 398.000 C 183.460 398.000,184.000 398.180,184.000 398.400 C 184.000 398.620,184.705 398.800,185.567 398.800 C 186.464 398.800,187.204 399.013,187.300 399.300 C 187.429 399.686,190.329 399.800,200.000 399.800 C 209.671 399.800,212.571 399.686,212.700 399.300 C 212.792 399.025,213.471 398.800,214.210 398.800 C 214.948 398.800,215.664 398.620,215.800 398.400 C 215.936 398.180,216.476 398.000,217.000 398.000 C 217.524 398.000,218.064 397.820,218.200 397.600 C 218.336 397.380,218.797 397.200,219.224 397.200 C 219.651 397.200,220.000 397.020,220.000 396.800 C 220.000 396.580,220.450 396.400,221.000 396.400 C 221.550 396.400,222.000 396.220,222.000 396.000 C 222.000 395.780,222.360 395.600,222.800 395.600 C 223.240 395.600,223.600 395.420,223.600 395.200 C 223.600 394.980,223.878 394.800,224.217 394.800 C 224.556 394.800,225.220 394.440,225.692 394.000 C 226.164 393.560,226.787 393.200,227.075 393.200 C 227.364 393.200,227.600 393.020,227.600 392.800 C 227.600 392.580,227.960 392.400,228.400 392.400 C 228.840 392.400,229.200 392.261,229.200 392.091 C 229.200 391.921,229.833 391.441,230.607 391.024 C 231.870 390.344,232.868 389.511,236.680 385.955 C 237.296 385.380,238.610 383.977,239.600 382.837 C 240.590 381.698,241.625 380.516,241.900 380.211 C 242.175 379.906,242.400 379.414,242.400 379.117 C 242.400 378.820,242.760 378.317,243.200 378.000 C 243.640 377.683,244.000 377.169,244.000 376.859 C 244.000 374.655,238.464 374.800,322.861 374.800 L 400.000 374.800 400.000 364.600 L 400.000 354.400 393.900 354.353 C 390.545 354.327,387.665 354.327,387.500 354.353 C 387.335 354.379,387.200 354.209,387.200 353.976 C 387.200 353.743,387.020 353.664,386.800 353.800 C 386.580 353.936,386.400 355.477,386.400 357.224 L 386.400 360.400 311.000 360.400 L 235.600 360.400 235.600 361.424 C 235.600 362.004,235.427 362.340,235.200 362.200 C 234.980 362.064,234.800 362.323,234.800 362.776 C 234.800 363.229,234.620 363.600,234.400 363.600 C 234.180 363.600,234.000 363.960,234.000 364.400 C 234.000 364.840,233.820 365.200,233.600 365.200 C 233.380 365.200,233.200 365.560,233.200 366.000 C 233.200 366.440,233.020 366.800,232.800 366.800 C 232.580 366.800,232.400 367.120,232.400 367.512 C 232.400 367.903,232.040 368.483,231.600 368.800 C 231.160 369.117,230.800 369.612,230.800 369.900 C 230.800 370.911,222.511 379.200,221.500 379.200 C 221.212 379.200,220.717 379.560,220.400 380.000 C 220.083 380.440,219.503 380.800,219.112 380.800 C 218.720 380.800,218.400 380.980,218.400 381.200 C 218.400 381.420,218.040 381.600,217.600 381.600 C 217.160 381.600,216.800 381.780,216.800 382.000 C 216.800 382.220,216.440 382.400,216.000 382.400 C 215.560 382.400,215.200 382.580,215.200 382.800 C 215.200 383.020,214.840 383.200,214.400 383.200 C 213.960 383.200,213.600 383.380,213.600 383.600 C 213.600 383.820,213.060 384.000,212.400 384.000 C 211.740 384.000,211.200 384.180,211.200 384.400 C 211.200 384.620,210.660 384.800,210.000 384.800 C 209.340 384.800,208.800 384.980,208.800 385.200 C 208.800 385.420,207.990 385.600,207.000 385.600 C 206.010 385.600,205.200 385.780,205.200 386.000 C 205.200 386.246,203.200 386.400,200.000 386.400 C 196.800 386.400,194.800 386.246,194.800 386.000 C 194.800 385.780,193.990 385.600,193.000 385.600 C 192.010 385.600,191.200 385.420,191.200 385.200 C 191.200 384.980,190.660 384.800,190.000 384.800 C 189.340 384.800,188.800 384.620,188.800 384.400 C 188.800 384.180,188.260 384.000,187.600 384.000 C 186.940 384.000,186.400 383.820,186.400 383.600 C 186.400 383.380,186.040 383.200,185.600 383.200 C 185.160 383.200,184.800 383.020,184.800 382.800 C 184.800 382.580,184.440 382.400,184.000 382.400 C 183.560 382.400,183.200 382.220,183.200 382.000 C 183.200 381.780,182.840 381.600,182.400 381.600 C 181.960 381.600,181.600 381.420,181.600 381.200 C 181.600 380.980,181.280 380.800,180.888 380.800 C 180.497 380.800,179.917 380.440,179.600 380.000 C 179.283 379.560,178.788 379.200,178.500 379.200 C 177.489 379.200,169.200 370.911,169.200 369.900 C 169.200 369.612,168.840 369.117,168.400 368.800 C 167.960 368.483,167.600 367.903,167.600 367.512 C 167.600 367.120,167.420 366.800,167.200 366.800 C 166.980 366.800,166.800 366.440,166.800 366.000 C 166.800 365.560,166.620 365.200,166.400 365.200 C 166.180 365.200,166.000 364.840,166.000 364.400 C 166.000 363.960,165.820 363.600,165.600 363.600 C 165.380 363.600,165.200 363.240,165.200 362.800 C 165.200 362.360,165.020 362.000,164.800 362.000 C 164.580 362.000,164.400 361.640,164.400 361.200 C 164.400 360.403,164.133 360.400,89.000 360.400 L 13.600 360.400 13.600 357.224 C 13.600 355.477,13.420 353.936,13.200 353.800 C 12.980 353.664,12.800 353.743,12.800 353.976 M180.000 354.063 C 180.000 354.249,180.349 354.400,180.776 354.400 C 181.203 354.400,181.675 354.597,181.823 354.838 C 181.972 355.078,182.523 355.193,183.047 355.093 C 183.674 354.973,184.000 355.097,184.000 355.455 C 184.000 355.755,184.360 356.000,184.800 356.000 C 185.240 356.000,185.600 356.159,185.600 356.353 C 185.600 356.548,186.005 356.808,186.500 356.932 C 188.694 357.481,192.759 359.107,192.525 359.342 C 192.383 359.484,192.657 359.600,193.133 359.600 C 193.610 359.600,194.000 359.780,194.000 360.000 C 194.000 360.220,194.360 360.400,194.800 360.400 C 195.240 360.400,195.600 360.580,195.600 360.800 C 195.600 361.020,195.960 361.200,196.400 361.200 C 196.840 361.200,197.200 361.380,197.200 361.600 C 197.200 361.820,197.560 362.000,198.000 362.000 C 198.440 362.000,198.800 362.180,198.800 362.400 C 198.800 362.620,199.340 362.800,200.000 362.800 C 200.660 362.800,201.200 362.620,201.200 362.400 C 201.200 362.180,201.560 362.000,202.000 362.000 C 202.440 362.000,202.800 361.820,202.800 361.600 C 202.800 361.380,203.160 361.200,203.600 361.200 C 204.040 361.200,204.400 361.020,204.400 360.800 C 204.400 360.580,204.760 360.400,205.200 360.400 C 205.640 360.400,206.000 360.220,206.000 360.000 C 206.000 359.780,206.360 359.600,206.800 359.600 C 207.240 359.600,207.600 359.434,207.600 359.232 C 207.600 359.029,208.185 358.738,208.900 358.585 C 209.615 358.432,210.909 357.967,211.775 357.553 C 212.641 357.139,213.586 356.800,213.875 356.800 C 214.164 356.800,214.400 356.620,214.400 356.400 C 214.400 356.180,214.760 356.000,215.200 356.000 C 215.640 356.000,216.000 355.809,216.000 355.576 C 216.000 355.343,215.822 355.263,215.605 355.397 C 215.376 355.539,215.312 355.373,215.453 355.005 C 215.675 354.428,214.223 354.379,200.049 354.484 C 191.442 354.548,184.400 354.454,184.400 354.276 C 184.400 354.098,184.265 354.034,184.100 354.132 C 183.935 354.231,182.945 354.180,181.900 354.019 C 180.855 353.859,180.000 353.878,180.000 354.063 " stroke="none" fill="#13480c" fill-rule="evenodd"></path><path id="path2" d="M92.900 147.499 C 97.025 147.564,103.775 147.564,107.900 147.499 C 112.025 147.434,108.650 147.381,100.400 147.381 C 92.150 147.381,88.775 147.434,92.900 147.499 M347.294 309.300 L 347.200 321.600 327.000 321.600 C 315.890 321.600,306.800 321.735,306.800 321.900 C 306.800 322.457,347.207 322.048,347.421 321.488 C 347.526 321.215,347.562 315.593,347.500 308.996 L 347.388 297.000 347.294 309.300 M192.483 317.700 C 192.429 329.045,192.259 335.200,192.000 335.200 C 191.780 335.200,191.600 335.017,191.600 334.794 C 191.600 334.571,191.061 334.060,190.401 333.659 C 189.742 333.258,189.322 332.811,189.468 332.665 C 189.614 332.519,189.423 332.400,189.043 332.400 C 188.663 332.400,188.445 332.251,188.558 332.068 C 188.671 331.885,184.542 331.692,179.382 331.639 C 172.327 331.567,170.000 331.662,170.000 332.021 C 170.000 332.383,169.866 332.387,169.442 332.035 C 169.012 331.678,168.738 331.719,168.242 332.215 C 167.409 333.048,167.426 333.352,168.288 333.022 C 168.666 332.876,168.848 332.886,168.691 333.042 C 168.535 333.198,168.581 333.536,168.794 333.792 C 169.078 334.135,168.864 334.212,167.990 334.084 C 167.336 333.988,166.800 333.750,166.800 333.555 C 166.800 333.360,166.275 333.200,165.633 333.200 C 164.992 333.200,164.407 333.028,164.333 332.818 C 164.260 332.607,163.525 332.390,162.700 332.336 C 161.875 332.281,161.200 332.089,161.200 331.909 C 161.200 331.729,160.579 331.650,159.819 331.733 C 158.997 331.824,158.471 331.716,158.519 331.467 C 158.564 331.236,158.264 330.975,157.853 330.885 C 157.351 330.776,157.202 330.880,157.401 331.201 C 157.626 331.566,157.500 331.575,156.871 331.238 C 156.416 330.995,155.934 330.617,155.799 330.398 C 155.663 330.179,155.248 330.014,154.876 330.032 C 154.453 330.051,154.388 330.139,154.705 330.266 C 154.982 330.378,155.369 330.769,155.565 331.135 C 155.896 331.754,151.851 331.793,97.261 331.703 L 38.600 331.605 38.330 330.703 C 38.182 330.206,38.092 331.240,38.130 333.000 L 38.200 336.200 71.800 336.468 C 103.359 336.720,110.014 336.938,118.400 337.996 C 120.270 338.232,122.970 338.524,124.400 338.645 C 125.830 338.766,127.171 339.030,127.380 339.232 C 127.589 339.435,128.357 339.600,129.087 339.600 C 129.816 339.600,132.675 340.050,135.439 340.600 C 138.203 341.150,140.979 341.600,141.609 341.600 C 142.238 341.600,142.864 341.780,143.000 342.000 C 143.136 342.220,143.856 342.400,144.600 342.400 C 145.344 342.400,146.064 342.580,146.200 342.800 C 146.336 343.020,147.157 343.200,148.024 343.200 C 148.891 343.200,149.600 343.380,149.600 343.600 C 149.600 343.820,150.219 344.000,150.976 344.000 C 151.733 344.000,152.464 344.180,152.600 344.400 C 152.736 344.620,153.377 344.800,154.024 344.800 C 154.671 344.800,155.200 344.980,155.200 345.200 C 155.200 345.420,155.819 345.600,156.576 345.600 C 157.333 345.600,158.064 345.780,158.200 346.000 C 158.336 346.220,158.977 346.400,159.624 346.400 C 160.271 346.400,160.800 346.580,160.800 346.800 C 160.800 347.020,161.340 347.200,162.000 347.200 C 162.660 347.200,163.200 347.380,163.200 347.600 C 163.200 347.820,163.729 348.000,164.376 348.000 C 165.023 348.000,165.642 348.144,165.751 348.321 C 165.860 348.497,166.872 348.893,168.000 349.200 C 169.128 349.507,170.140 349.903,170.249 350.079 C 170.358 350.256,170.799 350.400,171.229 350.400 C 171.659 350.400,172.368 350.580,172.805 350.800 C 173.242 351.020,173.958 351.380,174.395 351.600 C 174.832 351.820,175.507 352.002,175.895 352.004 C 176.283 352.006,177.563 352.456,178.740 353.004 C 179.917 353.552,181.412 354.000,182.063 354.000 C 182.822 354.000,183.150 354.158,182.975 354.440 C 182.784 354.749,182.956 354.745,183.552 354.426 C 184.018 354.176,184.400 354.113,184.400 354.286 C 184.400 354.459,191.442 354.548,200.049 354.484 C 214.939 354.374,215.685 354.403,215.444 355.084 C 215.270 355.573,215.422 355.503,215.924 354.863 C 216.348 354.323,216.986 353.980,217.430 354.053 C 217.853 354.123,218.380 354.073,218.600 353.943 C 218.926 353.749,221.630 352.781,222.400 352.583 C 222.939 352.443,224.275 351.902,224.895 351.571 C 225.277 351.367,226.042 351.200,226.595 351.200 C 227.148 351.200,227.600 351.020,227.600 350.800 C 227.600 350.580,228.140 350.400,228.800 350.400 C 229.460 350.400,230.000 350.220,230.000 350.000 C 230.000 349.780,230.272 349.600,230.605 349.600 C 230.938 349.600,231.523 349.442,231.905 349.249 C 232.967 348.713,235.376 348.000,236.128 348.000 C 236.498 348.000,236.800 347.820,236.800 347.600 C 236.800 347.380,237.239 347.200,237.776 347.200 C 238.313 347.200,238.864 347.020,239.000 346.800 C 239.136 346.580,239.766 346.400,240.400 346.400 C 241.034 346.400,241.664 346.220,241.800 346.000 C 241.936 345.780,242.566 345.600,243.200 345.600 C 243.834 345.600,244.464 345.420,244.600 345.200 C 244.736 344.980,245.456 344.800,246.200 344.800 C 246.944 344.800,247.664 344.620,247.800 344.400 C 247.936 344.180,248.577 344.000,249.224 344.000 C 249.871 344.000,250.400 343.820,250.400 343.600 C 250.400 343.380,251.109 343.200,251.976 343.200 C 252.843 343.200,253.664 343.020,253.800 342.800 C 253.936 342.580,254.656 342.400,255.400 342.400 C 256.144 342.400,256.864 342.220,257.000 342.000 C 257.136 341.780,257.822 341.597,258.524 341.594 C 259.226 341.590,261.510 341.220,263.600 340.772 C 265.690 340.323,268.660 339.778,270.200 339.559 C 289.521 336.818,290.660 336.757,328.200 336.463 L 361.800 336.200 361.883 333.600 C 361.934 332.028,361.842 331.306,361.652 331.773 C 361.436 332.306,361.247 332.399,361.045 332.073 C 360.822 331.712,346.951 331.600,302.596 331.600 C 249.279 331.600,244.409 331.546,244.075 330.949 C 243.826 330.503,243.622 330.440,243.432 330.749 C 243.278 330.997,243.298 331.203,243.476 331.206 C 243.903 331.214,242.703 331.986,242.251 331.994 C 242.059 331.997,242.126 331.730,242.400 331.400 C 242.808 330.909,242.781 330.800,242.252 330.800 C 241.897 330.800,241.390 331.147,241.125 331.572 C 240.745 332.180,240.481 332.257,239.878 331.935 C 239.348 331.651,238.980 331.660,238.677 331.963 C 238.437 332.203,237.646 332.400,236.920 332.400 C 236.194 332.400,235.600 332.580,235.600 332.800 C 235.600 333.020,235.060 333.200,234.400 333.200 C 233.740 333.200,233.200 333.393,233.200 333.628 C 233.200 333.863,232.833 333.998,232.384 333.928 C 231.935 333.858,231.575 333.665,231.584 333.500 C 231.593 333.335,231.703 333.245,231.828 333.300 C 231.954 333.355,232.235 333.081,232.453 332.692 C 232.671 332.302,233.063 332.090,233.325 332.221 C 233.586 332.352,233.473 332.193,233.074 331.867 C 232.451 331.358,232.199 331.352,231.290 331.824 C 230.594 332.185,230.144 332.233,229.977 331.964 C 229.677 331.478,213.438 331.636,212.200 332.137 C 211.486 332.425,211.477 332.411,212.108 332.006 C 212.498 331.755,212.702 331.366,212.563 331.140 C 212.422 330.912,211.214 331.855,209.854 333.255 L 207.400 335.782 207.175 332.391 C 207.051 330.526,206.916 329.577,206.875 330.281 L 206.800 331.563 200.161 331.681 C 196.042 331.755,193.423 331.648,193.261 331.400 C 193.117 331.180,192.902 324.070,192.783 315.600 L 192.565 300.200 192.483 317.700 M62.928 321.900 C 68.608 321.962,77.788 321.962,83.328 321.900 C 88.868 321.837,84.220 321.786,73.000 321.786 C 61.780 321.786,57.248 321.837,62.928 321.900 M185.200 329.000 C 185.530 329.440,186.133 330.048,186.541 330.351 C 187.137 330.795,187.176 330.969,186.741 331.245 C 186.443 331.434,186.380 331.588,186.600 331.588 C 187.828 331.588,187.690 330.874,186.218 329.600 C 185.328 328.830,184.870 328.560,185.200 329.000 M13.201 330.500 L 13.201 331.800 6.601 331.681 L 0.000 331.563 0.000 342.981 L 0.000 354.400 6.400 354.400 C 10.638 354.400,12.800 354.257,12.800 353.976 C 12.800 353.743,12.980 353.664,13.200 353.800 C 13.463 353.963,13.600 349.804,13.600 341.624 C 13.600 334.791,13.510 329.200,13.400 329.200 C 13.290 329.200,13.200 329.785,13.201 330.500 M247.017 329.572 C 246.616 330.221,247.487 330.418,248.004 329.796 C 248.406 329.311,248.381 329.200,247.873 329.200 C 247.529 329.200,247.144 329.368,247.017 329.572 M386.647 331.821 C 386.213 332.953,386.360 354.072,386.800 353.800 C 387.020 353.664,387.200 353.727,387.200 353.940 C 387.200 354.172,389.771 354.349,393.600 354.380 L 400.000 354.431 400.000 343.016 L 400.000 331.600 394.000 331.600 C 389.473 331.600,387.997 331.723,387.987 332.100 C 387.980 332.401,387.760 332.317,387.435 331.888 C 386.949 331.249,386.870 331.242,386.647 331.821 " stroke="none" fill="#17870c" fill-rule="evenodd"></path><path id="path3" d="M25.393 44.800 C 25.393 69.550,25.441 79.675,25.500 67.300 C 25.559 54.925,25.559 34.675,25.500 22.300 C 25.441 9.925,25.393 20.050,25.393 44.800 M309.929 25.500 C 317.040 25.561,328.560 25.561,335.529 25.500 C 342.498 25.438,336.680 25.388,322.600 25.388 C 308.520 25.388,302.818 25.439,309.929 25.500 M295.761 32.000 C 295.761 35.410,295.822 36.805,295.897 35.100 C 295.972 33.395,295.972 30.605,295.897 28.900 C 295.822 27.195,295.761 28.590,295.761 32.000 M295.759 58.000 C 295.759 61.190,295.821 62.495,295.897 60.900 C 295.973 59.305,295.973 56.695,295.897 55.100 C 295.821 53.505,295.759 54.810,295.759 58.000 M314.300 95.899 C 316.995 95.968,321.405 95.968,324.100 95.899 C 326.795 95.830,324.590 95.773,319.200 95.773 C 313.810 95.773,311.605 95.830,314.300 95.899 M25.397 200.400 C 25.397 253.310,25.443 274.955,25.500 248.500 C 25.557 222.045,25.557 178.755,25.500 152.300 C 25.443 125.845,25.397 147.490,25.397 200.400 M225.334 200.400 C 225.334 202.050,225.405 202.725,225.491 201.900 C 225.578 201.075,225.578 199.725,225.491 198.900 C 225.405 198.075,225.334 198.750,225.334 200.400 M283.105 244.283 C 283.602 244.379,284.322 244.375,284.705 244.275 C 285.087 244.175,284.680 244.096,283.800 244.101 C 282.920 244.105,282.607 244.187,283.105 244.283 M52.494 308.343 C 52.413 318.163,52.321 319.655,51.808 319.459 C 51.483 319.334,48.343 319.208,44.830 319.180 C 40.401 319.144,38.385 318.986,38.253 318.664 C 37.960 317.948,38.045 329.679,38.340 330.703 L 38.600 331.605 97.261 331.703 C 152.579 331.794,155.900 331.761,155.554 331.114 C 155.206 330.463,152.941 329.621,150.836 329.360 C 150.306 329.295,149.747 329.038,149.594 328.790 C 149.440 328.542,149.064 328.388,148.757 328.448 C 148.451 328.508,147.347 328.421,146.304 328.255 C 145.261 328.088,144.271 327.945,144.104 327.937 C 143.937 327.928,143.440 327.721,143.000 327.477 C 142.560 327.232,141.964 327.080,141.676 327.139 C 141.388 327.198,140.505 327.033,139.716 326.772 C 138.926 326.511,137.501 326.244,136.549 326.179 C 135.598 326.113,134.659 325.960,134.463 325.839 C 134.267 325.718,133.175 325.586,132.037 325.545 C 130.899 325.505,129.875 325.321,129.760 325.136 C 129.646 324.951,128.573 324.800,127.376 324.800 C 126.179 324.800,125.200 324.620,125.200 324.400 C 125.200 324.167,123.867 324.000,122.000 324.000 C 120.240 324.000,118.800 323.832,118.800 323.627 C 118.800 322.867,95.999 322.100,71.706 322.044 L 52.811 322.000 52.700 309.500 L 52.588 297.000 52.494 308.343 M207.364 307.000 C 207.363 310.740,207.423 312.324,207.497 310.520 C 207.571 308.715,207.572 305.655,207.498 303.720 C 207.425 301.784,207.364 303.260,207.364 307.000 M347.720 317.248 L 347.690 321.897 319.063 322.124 C 301.279 322.266,290.155 322.503,289.693 322.750 C 289.284 322.969,287.250 323.184,285.174 323.227 C 283.098 323.271,281.306 323.452,281.191 323.630 C 281.076 323.808,279.591 323.990,277.891 324.035 C 276.191 324.080,274.800 324.271,274.800 324.458 C 274.800 324.646,273.821 324.800,272.624 324.800 C 271.427 324.800,270.353 324.952,270.238 325.138 C 270.124 325.324,268.995 325.509,267.730 325.551 C 266.466 325.592,265.334 325.766,265.216 325.938 C 265.097 326.109,264.325 326.279,263.500 326.315 C 261.310 326.411,260.800 326.502,260.800 326.798 C 260.800 326.943,260.062 327.034,259.159 327.001 C 258.256 326.967,257.290 327.167,257.012 327.445 C 256.734 327.724,255.987 327.932,255.353 327.909 C 254.719 327.885,253.690 328.077,253.066 328.336 C 252.443 328.594,251.757 328.697,251.541 328.564 C 251.326 328.431,250.812 328.627,250.400 329.000 C 249.988 329.373,249.451 329.555,249.208 329.405 C 248.964 329.254,248.498 329.353,248.172 329.623 C 247.845 329.894,246.872 330.141,246.008 330.172 C 244.293 330.234,243.777 330.516,244.184 331.173 C 244.368 331.472,261.845 331.600,302.600 331.600 C 346.951 331.600,360.822 331.712,361.045 332.073 C 361.667 333.080,361.944 330.831,361.966 324.600 C 361.978 321.080,361.839 318.434,361.658 318.720 C 361.412 319.107,359.629 319.261,354.678 319.320 L 348.027 319.400 347.888 316.000 C 347.773 313.186,347.744 313.401,347.720 317.248 M171.378 317.964 C 172.197 319.289,171.309 319.401,160.695 319.311 C 149.467 319.215,149.089 319.244,149.449 320.183 C 149.578 320.520,149.826 320.707,150.000 320.600 C 150.174 320.493,150.419 320.674,150.546 321.002 C 150.672 321.331,150.953 321.600,151.170 321.600 C 151.510 321.600,153.765 322.951,155.000 323.894 C 155.220 324.062,155.895 324.455,156.500 324.768 C 157.105 325.080,157.600 325.485,157.600 325.668 C 157.600 325.850,157.920 326.000,158.312 326.000 C 158.703 326.000,159.283 326.360,159.600 326.800 C 159.917 327.240,160.457 327.600,160.800 327.600 C 161.143 327.600,161.683 327.960,162.000 328.400 C 162.317 328.840,162.779 329.200,163.026 329.200 C 163.274 329.200,163.798 329.556,164.191 329.991 C 164.585 330.425,165.063 330.685,165.253 330.567 C 165.444 330.449,165.600 330.644,165.600 331.000 C 165.600 331.356,165.780 331.536,166.000 331.400 C 166.220 331.264,166.400 331.354,166.400 331.600 C 166.400 331.846,166.581 331.935,166.803 331.798 C 167.024 331.661,167.312 331.826,167.442 332.164 C 167.652 332.713,167.743 332.714,168.281 332.176 C 168.746 331.711,169.013 331.679,169.442 332.035 C 169.866 332.386,170.000 332.384,170.000 332.025 C 170.000 331.460,187.884 331.488,188.233 332.054 C 188.351 332.244,188.662 332.397,188.924 332.393 C 189.186 332.390,188.815 332.012,188.100 331.554 C 187.386 331.097,186.919 330.532,187.062 330.299 C 187.213 330.055,187.133 329.994,186.872 330.155 C 186.624 330.309,186.102 330.039,185.711 329.557 C 184.339 327.864,182.626 326.400,182.017 326.400 C 181.788 326.400,181.600 326.124,181.600 325.787 C 181.600 325.451,181.285 325.058,180.900 324.915 C 180.515 324.772,179.930 324.364,179.600 324.009 C 179.270 323.653,178.370 322.928,177.600 322.396 C 176.830 321.865,175.723 320.929,175.140 320.315 C 174.556 319.702,173.909 319.200,173.702 319.200 C 173.494 319.200,172.998 318.840,172.600 318.400 C 171.879 317.603,170.950 317.272,171.378 317.964 M192.823 323.100 C 192.836 326.125,192.971 329.292,193.123 330.138 L 193.400 331.677 199.985 331.620 C 203.606 331.589,206.661 331.473,206.773 331.361 C 206.885 331.249,207.013 328.152,207.059 324.479 C 207.104 320.805,207.058 318.160,206.956 318.600 C 206.675 319.820,194.185 319.612,193.794 318.381 C 193.147 316.344,192.802 318.024,192.823 323.100 M13.284 318.518 C 13.238 318.912,12.975 319.206,12.700 319.170 C 12.425 319.134,9.455 319.127,6.100 319.153 L 0.000 319.200 0.000 325.381 L 0.000 331.563 6.576 331.681 L 13.152 331.800 13.402 329.000 C 13.620 326.564,13.508 316.613,13.284 318.518 M227.036 318.950 C 227.156 319.263,227.034 319.655,226.765 319.821 C 226.435 320.026,226.379 319.957,226.594 319.610 C 226.807 319.265,226.728 319.163,226.356 319.298 C 226.050 319.409,225.849 319.716,225.910 319.980 C 225.970 320.244,225.851 320.355,225.646 320.228 C 225.440 320.101,224.622 320.628,223.829 321.399 C 223.035 322.169,222.215 322.800,222.006 322.800 C 221.797 322.800,220.991 323.436,220.213 324.213 C 219.436 324.991,218.800 325.546,218.800 325.447 C 218.800 325.186,216.099 327.530,214.130 329.500 C 213.195 330.435,212.558 331.206,212.715 331.213 C 212.872 331.220,212.640 331.514,212.200 331.867 L 211.400 332.508 212.200 332.160 C 213.390 331.643,229.668 331.463,229.977 331.964 C 230.145 332.235,230.567 332.198,231.226 331.857 C 232.280 331.310,233.359 331.419,232.979 332.034 C 232.596 332.654,233.036 332.442,234.090 331.500 C 235.972 329.817,236.861 329.155,237.831 328.713 C 238.364 328.470,238.800 328.120,238.800 327.936 C 238.800 327.751,239.030 327.600,239.312 327.600 C 239.593 327.600,240.083 327.240,240.400 326.800 C 240.717 326.360,241.173 326.000,241.413 326.000 C 241.653 326.000,242.284 325.595,242.815 325.100 C 243.347 324.605,243.827 324.239,243.883 324.286 C 244.090 324.462,246.395 322.987,246.397 322.676 C 246.399 322.498,246.573 322.460,246.785 322.591 C 246.997 322.722,247.537 322.463,247.985 322.015 C 248.433 321.567,248.958 321.200,249.151 321.200 C 249.344 321.200,249.721 320.936,249.989 320.613 C 250.257 320.290,250.594 320.063,250.738 320.110 C 250.882 320.156,251.450 319.861,252.000 319.455 L 253.000 318.716 251.800 318.963 C 249.682 319.398,228.455 319.257,227.604 318.802 C 226.978 318.467,226.863 318.497,227.036 318.950 M386.692 318.642 C 386.531 318.802,386.414 321.918,386.432 325.567 C 386.449 329.215,386.557 331.965,386.672 331.679 C 386.828 331.289,387.018 331.339,387.428 331.879 C 387.754 332.309,387.980 332.398,387.987 332.100 C 387.997 331.723,389.473 331.600,394.000 331.600 L 400.000 331.600 400.000 325.400 L 400.000 319.200 393.633 319.200 C 389.495 319.200,387.217 319.051,387.125 318.775 C 387.047 318.541,386.852 318.481,386.692 318.642 M242.396 331.404 C 241.857 332.055,242.280 332.191,243.143 331.644 C 243.472 331.435,243.529 331.204,243.288 331.054 C 243.069 330.919,242.668 331.077,242.396 331.404 " stroke="none" fill="#1ca20c" fill-rule="evenodd"></path><path id="path4" d="M374.593 44.800 C 374.593 69.550,374.641 79.675,374.700 67.300 C 374.759 54.925,374.759 34.675,374.700 22.300 C 374.641 9.925,374.593 20.050,374.593 44.800 M16.518 104.298 C 18.233 104.373,20.933 104.372,22.518 104.297 C 24.103 104.221,22.700 104.159,19.400 104.160 C 16.100 104.161,14.803 104.222,16.518 104.298 M374.585 104.500 C 374.480 104.775,374.441 148.110,374.498 200.800 L 374.602 296.600 374.701 200.511 L 374.800 104.421 380.700 104.299 L 386.600 104.177 380.687 104.088 C 376.259 104.022,374.727 104.125,374.585 104.500 M104.160 180.600 C 104.161 183.900,104.222 185.197,104.298 183.482 C 104.373 181.767,104.372 179.067,104.297 177.482 C 104.221 175.897,104.159 177.300,104.160 180.600 M51.994 306.100 C 51.991 307.035,51.856 307.620,51.694 307.400 C 51.518 307.161,48.704 307.000,44.700 307.000 L 37.999 307.000 38.000 312.467 C 38.000 319.806,37.301 319.119,44.838 319.180 C 48.346 319.208,51.483 319.334,51.808 319.459 C 52.318 319.654,52.400 318.623,52.400 312.043 C 52.400 307.839,52.310 304.400,52.200 304.400 C 52.090 304.400,51.997 305.165,51.994 306.100 M347.667 306.437 C 347.630 307.667,347.716 311.087,347.857 314.037 L 348.114 319.400 354.721 319.320 C 362.670 319.224,362.002 319.920,361.934 311.800 C 361.904 308.280,361.810 305.850,361.724 306.400 L 361.567 307.400 354.984 307.281 L 348.400 307.163 348.333 308.081 C 348.296 308.587,348.146 307.920,348.000 306.600 L 347.734 304.200 347.667 306.437 M246.046 306.450 C 246.019 306.838,245.506 307.199,244.773 307.345 C 244.092 307.482,243.658 307.770,243.797 307.995 C 243.941 308.228,243.612 308.400,243.024 308.400 C 242.461 308.400,242.000 308.541,242.000 308.712 C 242.000 308.884,241.505 309.246,240.900 309.517 C 239.546 310.122,238.994 310.465,235.118 313.102 C 233.423 314.256,231.818 315.200,231.551 315.200 C 231.285 315.200,231.181 315.314,231.320 315.453 C 231.571 315.704,229.926 317.200,229.400 317.200 C 228.546 317.200,227.223 318.723,227.864 318.969 C 229.920 319.758,252.813 319.145,254.156 318.265 C 254.715 317.899,255.324 317.600,255.511 317.600 C 255.697 317.600,256.243 317.233,256.725 316.784 C 257.206 316.336,257.600 316.076,257.600 316.207 C 257.600 316.338,258.095 316.187,258.700 315.871 C 259.305 315.556,260.340 315.057,261.000 314.763 C 261.660 314.469,262.678 313.907,263.262 313.514 C 263.846 313.121,264.701 312.800,265.162 312.800 C 265.623 312.800,266.000 312.620,266.000 312.400 C 266.000 312.180,266.360 312.000,266.800 312.000 C 267.240 312.000,267.600 311.820,267.600 311.600 C 267.600 311.380,267.960 311.200,268.400 311.200 C 268.840 311.200,269.200 311.020,269.200 310.800 C 269.200 310.580,269.650 310.400,270.200 310.400 C 270.750 310.400,271.200 310.220,271.200 310.000 C 271.200 309.780,271.560 309.600,272.000 309.600 C 272.440 309.600,272.800 309.420,272.800 309.200 C 272.800 308.980,273.171 308.800,273.624 308.800 C 274.176 308.800,274.348 308.635,274.147 308.300 C 273.943 307.960,274.063 307.976,274.523 308.349 C 275.028 308.758,275.200 308.773,275.200 308.406 C 275.200 308.136,275.448 308.010,275.751 308.126 C 276.259 308.321,277.200 307.733,277.200 307.220 C 277.200 307.099,270.284 307.049,261.831 307.109 C 247.402 307.212,246.451 307.175,246.277 306.509 C 246.125 305.922,246.085 305.912,246.046 306.450 M13.096 306.800 C 12.841 307.303,11.763 307.381,6.396 307.281 L 0.000 307.162 0.000 313.195 L 0.000 319.228 6.588 319.180 L 13.176 319.132 13.407 317.866 C 13.739 316.047,13.459 306.084,13.096 306.800 M386.400 312.624 C 386.400 316.671,386.540 318.761,386.800 318.600 C 387.020 318.464,387.200 318.543,387.200 318.776 C 387.200 319.057,389.362 319.200,393.600 319.200 L 400.000 319.200 400.000 313.180 L 400.000 307.161 393.804 307.280 C 389.125 307.371,387.561 307.278,387.416 306.900 C 386.729 305.102,386.400 306.953,386.400 312.624 M121.600 307.008 C 121.600 307.474,124.180 308.356,124.417 307.972 C 124.595 307.684,124.772 307.751,124.932 308.166 C 125.065 308.515,125.631 308.800,126.187 308.800 C 126.744 308.800,127.200 308.980,127.200 309.200 C 127.200 309.420,127.560 309.600,128.000 309.600 C 128.440 309.600,128.800 309.780,128.800 310.000 C 128.800 310.220,129.250 310.400,129.800 310.400 C 130.350 310.400,130.800 310.580,130.800 310.800 C 130.800 311.020,131.160 311.200,131.600 311.200 C 132.040 311.200,132.400 311.380,132.400 311.600 C 132.400 311.820,132.749 312.000,133.176 312.000 C 133.603 312.000,134.064 312.180,134.200 312.400 C 134.336 312.620,134.797 312.800,135.224 312.800 C 135.651 312.800,136.000 312.980,136.000 313.200 C 136.000 313.420,136.225 313.604,136.500 313.609 C 137.166 313.622,145.616 317.851,145.401 318.065 C 145.310 318.157,145.629 318.262,146.111 318.298 C 146.594 318.335,147.051 318.554,147.128 318.785 C 147.205 319.016,147.433 319.103,147.634 318.979 C 147.835 318.855,148.000 319.012,148.000 319.330 C 148.000 319.647,148.354 319.999,148.786 320.112 C 149.252 320.234,149.537 320.131,149.486 319.859 C 149.423 319.523,152.291 319.400,160.200 319.400 C 168.341 319.400,171.078 319.278,171.317 318.905 C 171.727 318.264,170.943 316.800,170.189 316.800 C 169.869 316.800,169.382 316.440,169.107 316.000 C 168.832 315.560,168.381 315.200,168.104 315.200 C 167.827 315.200,167.600 315.054,167.600 314.875 C 167.600 314.696,166.520 313.942,165.200 313.200 C 163.880 312.458,162.800 311.731,162.800 311.586 C 162.800 311.440,162.080 310.997,161.200 310.600 C 160.320 310.203,159.600 309.726,159.600 309.539 C 159.600 309.353,159.240 309.200,158.800 309.200 C 158.360 309.200,158.000 309.020,158.000 308.800 C 158.000 308.580,157.730 308.400,157.400 308.400 C 157.070 308.400,156.799 308.265,156.797 308.100 C 156.795 307.935,156.345 307.592,155.797 307.338 C 155.209 307.065,154.800 307.034,154.800 307.261 C 154.800 307.474,154.620 307.536,154.400 307.400 C 154.180 307.264,154.000 307.338,154.000 307.564 C 154.000 307.790,153.731 307.872,153.402 307.746 C 153.074 307.619,152.904 307.355,153.026 307.158 C 153.148 306.961,152.956 306.800,152.600 306.800 C 152.244 306.800,152.036 306.935,152.138 307.100 C 152.333 307.415,123.513 307.374,122.300 307.057 C 121.915 306.957,121.600 306.935,121.600 307.008 M192.800 312.157 C 192.800 315.257,192.961 317.600,193.173 317.600 C 193.378 317.600,193.658 317.951,193.794 318.381 C 194.024 319.106,194.500 319.171,200.392 319.281 L 206.741 319.400 206.971 318.250 C 207.097 317.618,207.200 314.873,207.200 312.150 L 207.200 307.200 200.633 307.200 C 197.021 307.200,193.781 307.091,193.433 306.957 C 192.875 306.743,192.800 307.358,192.800 312.157 " stroke="none" fill="#1cb80c" fill-rule="evenodd"></path></g></svg>