<?xml version="1.0" encoding="UTF-8"?>
<!DOCTYPE svg PUBLIC "-//W3C//DTD SVG 1.1//EN" "http://www.w3.org/Graphics/SVG/1.1/DTD/svg11.dtd">
<!-- Creator: CorelDRAW 2020 (64-Bit) -->
<svg xmlns="http://www.w3.org/2000/svg" xml:space="preserve" width="119.641mm" height="135.45mm" version="1.1" style="shape-rendering:geometricPrecision; text-rendering:geometricPrecision; image-rendering:optimizeQuality; fill-rule:evenodd; clip-rule:evenodd"
viewBox="0 0 2790.42 3159.13"
 xmlns:xlink="http://www.w3.org/1999/xlink"
 xmlns:xodm="http://www.corel.com/coreldraw/odm/2003">
 <defs>
  <style type="text/css">
   <![CDATA[
    .fil5 {fill:#31A7FA}
    .fil4 {fill:#63B9FC}
    .fil6 {fill:#70D9E6}
    .fil8 {fill:#82B731}
    .fil2 {fill:#A3E440}
    .fil7 {fill:#A5E5EE}
    .fil0 {fill:#BBE971}
    .fil9 {fill:#BCE973}
    .fil1 {fill:#BCEA73}
    .fil3 {fill:#D1F09F}
   ]]>
  </style>
 </defs>
 <g id="Capa_x0020_1">
  <metadata id="CorelCorpID_0Corel-Layer"/>
  <path class="fil0" d="M1343.38 1620.92c-36.18,11.34 -60.16,40.12 -92.06,32.96 -37.28,-8.38 -44.88,-60.6 -17.19,-84.05 132.88,-112.52 380.91,-11.1 311.88,71.01 -45.31,53.9 -97.05,-53.02 -202.63,-19.92zm283.64 -226.46c-21.75,-68.9 72.63,-88.46 89.9,-34.53 21.06,65.79 -72.41,89.93 -89.9,34.53zm-559.5 -12.34c-5.42,-67.27 93.78,-70.38 93.93,-5.91 0.14,61.59 -89.22,64.32 -93.93,5.91zm-147.73 -1030.42c8,52.01 1.74,91.34 -22.64,128.32 10.2,9.57 -0.26,-6.31 12.07,14.87l12.81 54.59c8.52,198.52 -280.08,251.65 -329.48,42.86 -125.01,129.68 -220.67,311.66 -263.24,492.31 -13.94,59.17 -30,155.29 -29.7,229.45 0.68,165.57 11.45,601.77 -18.74,746.36 -13.45,64.4 -35.64,145.99 -61.32,198.72l2066.97 -0.71c-102.82,-300.01 -78.91,-369.99 -78.91,-691.25 0,-263.17 8.13,-452.84 -94.92,-677.64 -141.35,-308.33 -404.05,-533.32 -736.38,-614.81 -60.38,-14.81 -96.86,-35.73 -120,-77.33 -0.98,1.1 -2.41,1.42 -2.83,3.39l-26.57 29.09c-60.25,54.11 -229.93,64.29 -307.12,121.78z"/>
  <path class="fil1" d="M1091.95 2758.07c19.61,-10.16 439.4,-4.48 528.24,-4.84l72.16 6.93 762.57 -2.09c30.49,-23.55 64.62,-29.86 50.14,-95.11 -20.79,-93.65 -67.58,-142.45 -109.38,-205.27 -21.81,-32.78 -40.03,-62.46 -60.24,-97.97 55.15,-0.74 227.36,11.67 262.16,-7.92 -94.97,9.78 -1089.78,3.9 -1211.87,3.9 -154.6,0 -1142.53,10.79 -1209.35,-8.4 -18.13,45.91 -52.96,94.67 -80.23,133.08 -30.23,42.56 -55.72,77.57 -77.7,132.08 -70.98,176.03 75.22,145.6 231.98,145.6 280.52,0 561.03,0 841.55,0z"/>
  <path class="fil2" d="M1256.32 197.45c23.14,41.59 59.62,62.52 120,77.33 332.32,81.49 595.03,306.48 736.38,614.81 103.06,224.8 94.92,414.47 94.92,677.64 0,321.26 -23.91,391.23 78.91,691.25 127.27,-4.29 25.63,-12.64 67.91,-18.22l203.62 -0.2c-3.2,-39.22 -62.89,-159.3 -68.08,-333.27 -9.08,-304.56 38.93,-683.9 -67.6,-950.47l-61.77 -141.47c-29.42,10.02 -39.02,25.95 -80.72,29.76 -34.14,3.12 -62.06,-3.89 -86.31,-17.64 -35.28,-22.83 -71.89,-57.69 -76.46,-117.01 -5.57,-72.29 32.77,-104.38 59.62,-136.12 -82.57,-103.32 -247.64,-203.67 -375.84,-254.76 -140.02,-55.8 -239.6,-43.49 -276.89,-148.85 -13.07,-36.94 -1.28,-159.38 -111.44,-170.22l-33.69 0c-109.96,9.66 -104.52,138.92 -108.79,155.86 -5.69,22.59 -9.37,21.54 -13.77,41.58z"/>
  <path class="fil3" d="M176.36 2347.3c66.82,19.19 1054.75,8.4 1209.35,8.4 122.09,0 1116.91,5.88 1211.87,-3.9l15.99 -4.36c8.58,-16.55 22.12,-26.41 16.46,-49.46 -4.53,-18.46 -17.24,-28.53 -33,-33.52 14.71,68 -28.82,68.24 -88.32,67.91 -55.29,-0.31 -113,1.79 -167.91,-1.02 23.34,-15.6 32.45,-29.35 24.76,-67.71l-79.04 -5.17 -2066.97 0.71c-28.98,-1.02 -46.49,10.25 -56.18,30 -14.79,30.15 4.63,35.64 12.99,58.13z"/>
  <path class="fil2" d="M2597.59 2351.8c-34.79,19.59 -207.01,7.18 -262.16,7.92 20.22,35.51 38.43,65.19 60.24,97.97 41.8,62.82 88.59,111.63 109.38,205.27 14.49,65.24 -19.65,71.56 -50.14,95.11 75.5,0 151.14,-0.46 226.62,0.08 82.34,0.59 128.31,-24.35 100.99,-113.46 -43.21,-140.93 -145.64,-218.7 -168.94,-297.26l-15.99 4.36z"/>
  <path class="fil4" d="M1225.29 3112.54c165.49,-39.31 262.21,-154.2 219.39,-355.01l247.67 2.63 -72.16 -6.93c-88.84,0.36 -508.64,-5.32 -528.24,4.84 -36.16,51.37 -7.84,172.24 10.6,215.29 10.6,24.75 32.47,57.78 50.49,79.08 15.91,18.81 48.72,48.61 72.26,60.09z"/>
  <path class="fil5" d="M1225.29 3112.54c27.65,26.33 76.52,43.06 132.46,46.59l44.95 0c61.59,-3.8 126.93,-23.21 179.71,-62.45 47.16,-35.06 76.37,-74.64 101.37,-133.1 23.45,-54.85 36.67,-168.84 8.58,-203.42l-247.67 -2.63c42.83,200.81 -53.9,315.7 -219.39,355.01z"/>
  <path class="fil2" d="M677.25 536.98l-19.61 -7.68 -65.08 63.04c49.4,208.78 338,155.66 329.48,-42.86l-12.81 -54.59c-12.33,-21.18 -1.87,-5.3 -12.07,-14.87 -21.6,33.78 -43.94,57.39 -94.43,72.39 -42.75,12.7 -96.31,8.04 -125.47,-15.43z"/>
  <path class="fil6" d="M678.29 240.64c16.22,21.54 109.36,41.94 106.92,153.98 -2.25,103.53 -78.15,122.44 -107.96,142.36 29.16,23.47 82.73,28.13 125.47,15.43 50.5,-15 72.83,-38.61 94.43,-72.39 24.37,-36.98 30.64,-76.31 22.64,-128.32 -10.26,-35.59 -11.72,-39.02 -30.99,-64.57 -16.39,-21.74 -29.7,-31.52 -54.1,-44.62 -49.84,-26.75 -102.42,-28.12 -156.41,-1.87z"/>
  <path class="fil7" d="M657.64 529.3l19.61 7.68c29.81,-19.92 105.71,-38.82 107.96,-142.36 2.43,-112.04 -90.7,-132.45 -106.92,-153.98 -16.9,6.64 -47.29,34.25 -57.89,49.15 -16.92,23.78 -28.36,45.52 -31.87,85.44 -5.71,65.06 24.35,122.22 69.1,154.07z"/>
  <path class="fil6" d="M2196.76 561.49c20.14,30.78 95.07,34.37 94.14,135.7 -0.82,89.47 -65.59,106.29 -97.33,129.77 24.25,13.74 52.16,20.76 86.31,17.64 41.7,-3.81 51.31,-19.73 80.72,-29.76 21,-32.59 37.9,-33.51 51.1,-85.1 10.95,-42.82 -1.03,-83.33 -20.02,-112.95 -41.39,-64.56 -110.53,-88.9 -194.93,-55.3z"/>
  <path class="fil7" d="M2176.73 573.83c-26.85,31.74 -65.19,63.83 -59.62,136.12 4.57,59.31 41.18,94.18 76.46,117.01 31.73,-23.48 96.51,-40.3 97.33,-129.77 0.92,-101.33 -74,-104.92 -94.14,-135.7 -8.14,6.42 -11.09,6.98 -20.03,12.34z"/>
  <path class="fil8" d="M1343.38 1620.92c105.58,-33.1 157.32,73.82 202.63,19.92 69.03,-82.11 -179,-183.53 -311.88,-71.01 -27.69,23.45 -20.09,75.67 17.19,84.05 31.9,7.16 55.88,-21.62 92.06,-32.96z"/>
  <path class="fil9" d="M2286.53 2258.47l79.04 5.17c7.69,38.35 -1.42,52.1 -24.76,67.71 54.91,2.81 112.62,0.71 167.91,1.02 59.5,0.33 103.03,0.08 88.32,-67.91 -15.44,-17.62 -13.09,-22.74 -38.99,-24.4l-203.62 0.2c-42.28,5.58 59.36,13.93 -67.91,18.22z"/>
  <path class="fil8" d="M1627.02 1394.46c17.49,55.4 110.96,31.25 89.9,-34.53 -17.27,-53.92 -111.65,-34.37 -89.9,34.53z"/>
  <path class="fil8" d="M1067.53 1382.12c4.71,58.4 94.07,55.68 93.93,-5.91 -0.15,-64.47 -99.35,-61.35 -93.93,5.91z"/>
 </g>
</svg>
